solid OpenSCAD_Model
  facet normal -1 2.22044e-16 0
    outer loop
      vertex 0 27.2 0
      vertex -1.90958e-15 18.6 3.6
      vertex 0 27.2 23.6
    endloop
  endfacet
  facet normal -1 2.22044e-16 7.18589e-22
    outer loop
      vertex -6.03961e-15 1.90735e-07 0
      vertex -1.90958e-15 18.6 3.6
      vertex 0 27.2 0
    endloop
  endfacet
  facet normal -1 2.22045e-16 5.44994e-23
    outer loop
      vertex -1.90958e-15 18.6 3.6
      vertex -6.03961e-15 1.90735e-07 0
      vertex -4.79616e-15 5.6 3.6
    endloop
  endfacet
  facet normal -1 2.22045e-16 0
    outer loop
      vertex -6.03961e-15 1.90735e-07 23.6
      vertex -4.79616e-15 5.6 3.6
      vertex -6.03961e-15 1.90735e-07 0
    endloop
  endfacet
  facet normal -1 2.22045e-16 0
    outer loop
      vertex -4.79616e-15 5.6 3.6
      vertex -6.03961e-15 1.90735e-07 23.6
      vertex -4.79616e-15 5.6 23.6
    endloop
  endfacet
  facet normal -1 2.22044e-16 0
    outer loop
      vertex 0 27.2 23.6
      vertex -1.90958e-15 18.6 3.6
      vertex -1.90958e-15 18.6 23.6
    endloop
  endfacet
  facet normal 0 0 1
    outer loop
      vertex 25.2 27.2 23.6
      vertex 23.6 25.6 23.6
      vertex 25.2 19.6 23.6
    endloop
  endfacet
  facet normal 0 0 1
    outer loop
      vertex 25.2 27.2 23.6
      vertex 1.6 25.6 23.6
      vertex 23.6 25.6 23.6
    endloop
  endfacet
  facet normal -0 0 1
    outer loop
      vertex 0 27.2 23.6
      vertex 1.6 25.6 23.6
      vertex 25.2 27.2 23.6
    endloop
  endfacet
  facet normal 0 0 1
    outer loop
      vertex -1.90958e-15 18.6 23.6
      vertex 1.6 25.6 23.6
      vertex 0 27.2 23.6
    endloop
  endfacet
  facet normal 0 0 1
    outer loop
      vertex 1.6 25.6 23.6
      vertex -1.90958e-15 18.6 23.6
      vertex 1.6 18.6 23.6
    endloop
  endfacet
  facet normal 0 0 1
    outer loop
      vertex 25.2 19.6 23.6
      vertex 23.6 25.6 23.6
      vertex 23.6 19.6 23.6
    endloop
  endfacet
  facet normal 0 0 1
    outer loop
      vertex 1.6 5.6 23.6
      vertex -4.79616e-15 5.6 23.6
      vertex 1.6 1.6 23.6
    endloop
  endfacet
  facet normal 0 0 1
    outer loop
      vertex 23.6 1.6 23.6
      vertex 25.2 4.6 23.6
      vertex 23.6 4.6 23.6
    endloop
  endfacet
  facet normal 0 0 1
    outer loop
      vertex 25.2 4.6 23.6
      vertex 23.6 1.6 23.6
      vertex 25.2 1.90735e-07 23.6
    endloop
  endfacet
  facet normal -0 0 1
    outer loop
      vertex 1.6 1.6 23.6
      vertex 25.2 1.90735e-07 23.6
      vertex 23.6 1.6 23.6
    endloop
  endfacet
  facet normal 0 0 1
    outer loop
      vertex 1.6 1.6 23.6
      vertex -6.03961e-15 1.90735e-07 23.6
      vertex 25.2 1.90735e-07 23.6
    endloop
  endfacet
  facet normal 0 0 1
    outer loop
      vertex -6.03961e-15 1.90735e-07 23.6
      vertex 1.6 1.6 23.6
      vertex -4.79616e-15 5.6 23.6
    endloop
  endfacet
  facet normal 1 0 0
    outer loop
      vertex 25.2 4.6 23.6
      vertex 25.2 1.90735e-07 23.6
      vertex 25.2 4.6 13.6
    endloop
  endfacet
  facet normal 1 0 0
    outer loop
      vertex 25.2 19.6 13.6
      vertex 25.2 27.2 23.6
      vertex 25.2 19.6 23.6
    endloop
  endfacet
  facet normal 1 0 0
    outer loop
      vertex 25.2 27.2 23.6
      vertex 25.2 19.6 13.6
      vertex 25.2 27.2 0
    endloop
  endfacet
  facet normal 1 0 0
    outer loop
      vertex 25.2 1.90735e-07 0
      vertex 25.2 19.6 13.6
      vertex 25.2 4.6 13.6
    endloop
  endfacet
  facet normal 1 0 0
    outer loop
      vertex 25.2 19.6 13.6
      vertex 25.2 1.90735e-07 0
      vertex 25.2 27.2 0
    endloop
  endfacet
  facet normal 1 0 0
    outer loop
      vertex 25.2 1.90735e-07 0
      vertex 25.2 4.6 13.6
      vertex 25.2 1.90735e-07 23.6
    endloop
  endfacet
  facet normal 0 0 -1
    outer loop
      vertex 25.2 1.90735e-07 0
      vertex 0 27.2 0
      vertex 25.2 27.2 0
    endloop
  endfacet
  facet normal 0 -0 -1
    outer loop
      vertex 0 27.2 0
      vertex 25.2 1.90735e-07 0
      vertex -6.03961e-15 1.90735e-07 0
    endloop
  endfacet
  facet normal 0 1 -0
    outer loop
      vertex 25.2 27.2 0
      vertex 0 27.2 23.6
      vertex 25.2 27.2 23.6
    endloop
  endfacet
  facet normal 0 1 0
    outer loop
      vertex 0 27.2 23.6
      vertex 25.2 27.2 0
      vertex 0 27.2 0
    endloop
  endfacet
  facet normal 0 -1 0
    outer loop
      vertex -6.03961e-15 1.90735e-07 0
      vertex 25.2 1.90735e-07 23.6
      vertex -6.03961e-15 1.90735e-07 23.6
    endloop
  endfacet
  facet normal 0 -1 -0
    outer loop
      vertex 25.2 1.90735e-07 23.6
      vertex -6.03961e-15 1.90735e-07 0
      vertex 25.2 1.90735e-07 0
    endloop
  endfacet
  facet normal 1 0 0
    outer loop
      vertex 1.6 5.6 23.6
      vertex 1.6 1.6 23.6
      vertex 1.6 5.6 3.6
    endloop
  endfacet
  facet normal 1 0 0
    outer loop
      vertex 1.6 18.6 3.6
      vertex 1.6 25.6 23.6
      vertex 1.6 18.6 23.6
    endloop
  endfacet
  facet normal 1 0 0
    outer loop
      vertex 1.6 25.6 23.6
      vertex 1.6 18.6 3.6
      vertex 1.6 25.6 1.6
    endloop
  endfacet
  facet normal 1 0 0
    outer loop
      vertex 1.6 1.6 1.6
      vertex 1.6 18.6 3.6
      vertex 1.6 5.6 3.6
    endloop
  endfacet
  facet normal 1 0 0
    outer loop
      vertex 1.6 18.6 3.6
      vertex 1.6 1.6 1.6
      vertex 1.6 25.6 1.6
    endloop
  endfacet
  facet normal 1 0 0
    outer loop
      vertex 1.6 1.6 1.6
      vertex 1.6 5.6 3.6
      vertex 1.6 1.6 23.6
    endloop
  endfacet
  facet normal -1 0 0
    outer loop
      vertex 23.6 25.6 1.6
      vertex 23.6 19.6 13.6
      vertex 23.6 25.6 23.6
    endloop
  endfacet
  facet normal -1 0 0
    outer loop
      vertex 23.6 1.6 1.6
      vertex 23.6 19.6 13.6
      vertex 23.6 25.6 1.6
    endloop
  endfacet
  facet normal -1 -0 0
    outer loop
      vertex 23.6 19.6 13.6
      vertex 23.6 1.6 1.6
      vertex 23.6 4.6 13.6
    endloop
  endfacet
  facet normal -1 0 0
    outer loop
      vertex 23.6 1.6 23.6
      vertex 23.6 4.6 13.6
      vertex 23.6 1.6 1.6
    endloop
  endfacet
  facet normal -1 0 0
    outer loop
      vertex 23.6 4.6 13.6
      vertex 23.6 1.6 23.6
      vertex 23.6 4.6 23.6
    endloop
  endfacet
  facet normal -1 -0 0
    outer loop
      vertex 23.6 25.6 23.6
      vertex 23.6 19.6 13.6
      vertex 23.6 19.6 23.6
    endloop
  endfacet
  facet normal 0 1 -0
    outer loop
      vertex 23.6 1.6 1.6
      vertex 1.6 1.6 23.6
      vertex 23.6 1.6 23.6
    endloop
  endfacet
  facet normal 0 1 0
    outer loop
      vertex 1.6 1.6 23.6
      vertex 23.6 1.6 1.6
      vertex 1.6 1.6 1.6
    endloop
  endfacet
  facet normal -0 0 1
    outer loop
      vertex 1.6 25.6 1.6
      vertex 23.6 1.6 1.6
      vertex 23.6 25.6 1.6
    endloop
  endfacet
  facet normal 0 0 1
    outer loop
      vertex 23.6 1.6 1.6
      vertex 1.6 25.6 1.6
      vertex 1.6 1.6 1.6
    endloop
  endfacet
  facet normal 0 -1 0
    outer loop
      vertex 1.6 25.6 1.6
      vertex 23.6 25.6 23.6
      vertex 1.6 25.6 23.6
    endloop
  endfacet
  facet normal 0 -1 -0
    outer loop
      vertex 23.6 25.6 23.6
      vertex 1.6 25.6 1.6
      vertex 23.6 25.6 1.6
    endloop
  endfacet
  facet normal 0 1 -0
    outer loop
      vertex 1.6 5.6 3.6
      vertex -4.79616e-15 5.6 23.6
      vertex 1.6 5.6 23.6
    endloop
  endfacet
  facet normal 0 1 0
    outer loop
      vertex -4.79616e-15 5.6 23.6
      vertex 1.6 5.6 3.6
      vertex -4.79616e-15 5.6 3.6
    endloop
  endfacet
  facet normal -0 0 1
    outer loop
      vertex -1.90958e-15 18.6 3.6
      vertex 1.6 5.6 3.6
      vertex 1.6 18.6 3.6
    endloop
  endfacet
  facet normal 0 0 1
    outer loop
      vertex 1.6 5.6 3.6
      vertex -1.90958e-15 18.6 3.6
      vertex -4.79616e-15 5.6 3.6
    endloop
  endfacet
  facet normal 0 -1 0
    outer loop
      vertex -1.90958e-15 18.6 3.6
      vertex 1.6 18.6 23.6
      vertex -1.90958e-15 18.6 23.6
    endloop
  endfacet
  facet normal 0 -1 -0
    outer loop
      vertex 1.6 18.6 23.6
      vertex -1.90958e-15 18.6 3.6
      vertex 1.6 18.6 3.6
    endloop
  endfacet
  facet normal 0 1 -0
    outer loop
      vertex 25.2 4.6 13.6
      vertex 23.6 4.6 23.6
      vertex 25.2 4.6 23.6
    endloop
  endfacet
  facet normal 0 1 0
    outer loop
      vertex 23.6 4.6 23.6
      vertex 25.2 4.6 13.6
      vertex 23.6 4.6 13.6
    endloop
  endfacet
  facet normal -0 0 1
    outer loop
      vertex 23.6 19.6 13.6
      vertex 25.2 4.6 13.6
      vertex 25.2 19.6 13.6
    endloop
  endfacet
  facet normal 0 0 1
    outer loop
      vertex 25.2 4.6 13.6
      vertex 23.6 19.6 13.6
      vertex 23.6 4.6 13.6
    endloop
  endfacet
  facet normal 0 -1 0
    outer loop
      vertex 23.6 19.6 13.6
      vertex 25.2 19.6 23.6
      vertex 23.6 19.6 23.6
    endloop
  endfacet
  facet normal 0 -1 -0
    outer loop
      vertex 25.2 19.6 23.6
      vertex 23.6 19.6 13.6
      vertex 25.2 19.6 13.6
    endloop
  endfacet
  facet normal -1 0 0
    outer loop
      vertex -25.2 1.6 1.6
      vertex -25.2 25.6 3.2
      vertex -25.2 25.6 1.6
    endloop
  endfacet
  facet normal -1 -0 0
    outer loop
      vertex -25.2 25.6 3.2
      vertex -25.2 1.6 1.6
      vertex -25.2 1.6 3.2
    endloop
  endfacet
  facet normal 0 0 1
    outer loop
      vertex -3.2 25.6 3.2
      vertex -4.8 24 3.2
      vertex -3.2 1.6 3.2
    endloop
  endfacet
  facet normal 0 0 1
    outer loop
      vertex -3.2 25.6 3.2
      vertex -23.6 24 3.2
      vertex -4.8 24 3.2
    endloop
  endfacet
  facet normal 0 0 1
    outer loop
      vertex -23.6 24 3.2
      vertex -25.2 25.6 3.2
      vertex -23.6 3.2 3.2
    endloop
  endfacet
  facet normal -0 0 1
    outer loop
      vertex -25.2 25.6 3.2
      vertex -23.6 24 3.2
      vertex -3.2 25.6 3.2
    endloop
  endfacet
  facet normal -0 0 1
    outer loop
      vertex -4.8 3.2 3.2
      vertex -3.2 1.6 3.2
      vertex -4.8 24 3.2
    endloop
  endfacet
  facet normal -0 0 1
    outer loop
      vertex -23.6 3.2 3.2
      vertex -3.2 1.6 3.2
      vertex -4.8 3.2 3.2
    endloop
  endfacet
  facet normal 0 0 1
    outer loop
      vertex -23.6 3.2 3.2
      vertex -25.2 1.6 3.2
      vertex -3.2 1.6 3.2
    endloop
  endfacet
  facet normal 0 0 1
    outer loop
      vertex -25.2 1.6 3.2
      vertex -23.6 3.2 3.2
      vertex -25.2 25.6 3.2
    endloop
  endfacet
  facet normal 1 -0 0
    outer loop
      vertex -3.2 1.6 3.2
      vertex -3.2 25.6 1.6
      vertex -3.2 25.6 3.2
    endloop
  endfacet
  facet normal 1 0 0
    outer loop
      vertex -3.2 25.6 1.6
      vertex -3.2 1.6 3.2
      vertex -3.2 1.6 1.6
    endloop
  endfacet
  facet normal 0 1 -0
    outer loop
      vertex -3.2 25.6 1.6
      vertex -25.2 25.6 3.2
      vertex -3.2 25.6 3.2
    endloop
  endfacet
  facet normal 0 1 0
    outer loop
      vertex -25.2 25.6 3.2
      vertex -3.2 25.6 1.6
      vertex -25.2 25.6 1.6
    endloop
  endfacet
  facet normal 0 0 1
    outer loop
      vertex -9.79161 31.3984 1.6
      vertex -12.7185 30.8347 1.6
      vertex -12.7 30.6 1.6
    endloop
  endfacet
  facet normal 0 0 1
    outer loop
      vertex -10.7951 33.2021 1.6
      vertex -12.7734 31.0635 1.6
      vertex -12.7185 30.8347 1.6
    endloop
  endfacet
  facet normal 0 0 1
    outer loop
      vertex -10.7951 33.2021 1.6
      vertex -12.8635 31.281 1.6
      vertex -12.7734 31.0635 1.6
    endloop
  endfacet
  facet normal 0 0 1
    outer loop
      vertex -10.7951 33.2021 1.6
      vertex -12.9865 31.4817 1.6
      vertex -12.8635 31.281 1.6
    endloop
  endfacet
  facet normal 0 0 1
    outer loop
      vertex -13.7365 32.0266 1.6
      vertex -11.8824 34.5232 1.6
      vertex -13.0267 35.3291 1.6
    endloop
  endfacet
  facet normal 0 0 1
    outer loop
      vertex -10.7951 33.2021 1.6
      vertex -13.1393 31.6607 1.6
      vertex -12.9865 31.4817 1.6
    endloop
  endfacet
  facet normal 0 0 1
    outer loop
      vertex -10.7951 33.2021 1.6
      vertex -13.3183 31.8135 1.6
      vertex -13.1393 31.6607 1.6
    endloop
  endfacet
  facet normal 0 0 1
    outer loop
      vertex -11.8824 34.5232 1.6
      vertex -13.519 31.9365 1.6
      vertex -13.3183 31.8135 1.6
    endloop
  endfacet
  facet normal 0 0 1
    outer loop
      vertex -11.8824 34.5232 1.6
      vertex -13.7365 32.0266 1.6
      vertex -13.519 31.9365 1.6
    endloop
  endfacet
  facet normal 0 0 1
    outer loop
      vertex -13.0267 35.3291 1.6
      vertex -13.9653 32.0815 1.6
      vertex -13.7365 32.0266 1.6
    endloop
  endfacet
  facet normal 0 0 1
    outer loop
      vertex -14.2 32.1 1.6
      vertex -13.0267 35.3291 1.6
      vertex -14.2 35.6 1.6
    endloop
  endfacet
  facet normal 0 0 1
    outer loop
      vertex -13.0267 35.3291 1.6
      vertex -14.2 32.1 1.6
      vertex -13.9653 32.0815 1.6
    endloop
  endfacet
  facet normal -0 0 1
    outer loop
      vertex -15.3733 35.3291 1.6
      vertex -14.2 32.1 1.6
      vertex -14.2 35.6 1.6
    endloop
  endfacet
  facet normal 0 0 1
    outer loop
      vertex -14.2 32.1 1.6
      vertex -15.3733 35.3291 1.6
      vertex -14.4347 32.0815 1.6
    endloop
  endfacet
  facet normal 0 0 1
    outer loop
      vertex -14.4347 32.0815 1.6
      vertex -15.3733 35.3291 1.6
      vertex -14.6635 32.0266 1.6
    endloop
  endfacet
  facet normal -0 0 1
    outer loop
      vertex -16.5176 34.5232 1.6
      vertex -14.6635 32.0266 1.6
      vertex -15.3733 35.3291 1.6
    endloop
  endfacet
  facet normal 0 0 1
    outer loop
      vertex -14.6635 32.0266 1.6
      vertex -16.5176 34.5232 1.6
      vertex -14.881 31.9365 1.6
    endloop
  endfacet
  facet normal 0 0 1
    outer loop
      vertex -14.881 31.9365 1.6
      vertex -16.5176 34.5232 1.6
      vertex -15.0817 31.8135 1.6
    endloop
  endfacet
  facet normal -0 0 1
    outer loop
      vertex -17.6049 33.2021 1.6
      vertex -15.0817 31.8135 1.6
      vertex -16.5176 34.5232 1.6
    endloop
  endfacet
  facet normal 0 0 1
    outer loop
      vertex -15.0817 31.8135 1.6
      vertex -17.6049 33.2021 1.6
      vertex -15.2607 31.6607 1.6
    endloop
  endfacet
  facet normal 0 0 1
    outer loop
      vertex -15.2607 31.6607 1.6
      vertex -17.6049 33.2021 1.6
      vertex -15.4135 31.4817 1.6
    endloop
  endfacet
  facet normal 0 0 1
    outer loop
      vertex -15.4135 31.4817 1.6
      vertex -17.6049 33.2021 1.6
      vertex -15.5365 31.281 1.6
    endloop
  endfacet
  facet normal 0 0 1
    outer loop
      vertex -15.5365 31.281 1.6
      vertex -17.6049 33.2021 1.6
      vertex -15.6266 31.0635 1.6
    endloop
  endfacet
  facet normal -0 0 1
    outer loop
      vertex -18.6084 31.3984 1.6
      vertex -15.6266 31.0635 1.6
      vertex -17.6049 33.2021 1.6
    endloop
  endfacet
  facet normal 0 0 1
    outer loop
      vertex -1.6 27.2 1.6
      vertex -3.2 25.6 1.6
      vertex -1.6 0 1.6
    endloop
  endfacet
  facet normal -0 0 1
    outer loop
      vertex -8.32708 27.2 1.6
      vertex -3.2 25.6 1.6
      vertex -1.6 27.2 1.6
    endloop
  endfacet
  facet normal -0 0 1
    outer loop
      vertex -12.7734 30.1365 1.6
      vertex -8.8967 29.1563 1.6
      vertex -9.79161 31.3984 1.6
    endloop
  endfacet
  facet normal 0 0 1
    outer loop
      vertex -12.7185 30.8347 1.6
      vertex -9.79161 31.3984 1.6
      vertex -10.7951 33.2021 1.6
    endloop
  endfacet
  facet normal 0 0 1
    outer loop
      vertex -13.3183 31.8135 1.6
      vertex -10.7951 33.2021 1.6
      vertex -11.8824 34.5232 1.6
    endloop
  endfacet
  facet normal 0 0 1
    outer loop
      vertex -12.7185 30.3653 1.6
      vertex -9.79161 31.3984 1.6
      vertex -12.7 30.6 1.6
    endloop
  endfacet
  facet normal 0 0 1
    outer loop
      vertex -12.7734 30.1365 1.6
      vertex -9.79161 31.3984 1.6
      vertex -12.7185 30.3653 1.6
    endloop
  endfacet
  facet normal 0 0 1
    outer loop
      vertex -8.8967 29.1563 1.6
      vertex -12.7734 30.1365 1.6
      vertex -12.8635 29.919 1.6
    endloop
  endfacet
  facet normal -0 0 1
    outer loop
      vertex -12.9865 29.7183 1.6
      vertex -8.8967 29.1563 1.6
      vertex -12.8635 29.919 1.6
    endloop
  endfacet
  facet normal -0 0 1
    outer loop
      vertex -13.1393 29.5393 1.6
      vertex -8.8967 29.1563 1.6
      vertex -12.9865 29.7183 1.6
    endloop
  endfacet
  facet normal 0 0 1
    outer loop
      vertex -8.8967 29.1563 1.6
      vertex -13.1393 29.5393 1.6
      vertex -8.32708 27.2 1.6
    endloop
  endfacet
  facet normal -0 0 1
    outer loop
      vertex -13.3183 29.3865 1.6
      vertex -8.32708 27.2 1.6
      vertex -13.1393 29.5393 1.6
    endloop
  endfacet
  facet normal -0 0 1
    outer loop
      vertex -13.519 29.2635 1.6
      vertex -8.32708 27.2 1.6
      vertex -13.3183 29.3865 1.6
    endloop
  endfacet
  facet normal -0 0 1
    outer loop
      vertex -13.7365 29.1734 1.6
      vertex -8.32708 27.2 1.6
      vertex -13.519 29.2635 1.6
    endloop
  endfacet
  facet normal -0 0 1
    outer loop
      vertex -13.9653 29.1185 1.6
      vertex -8.32708 27.2 1.6
      vertex -13.7365 29.1734 1.6
    endloop
  endfacet
  facet normal -0 0 1
    outer loop
      vertex -14.2 29.1 1.6
      vertex -8.32708 27.2 1.6
      vertex -13.9653 29.1185 1.6
    endloop
  endfacet
  facet normal 0 0 1
    outer loop
      vertex -20.0729 27.2 1.6
      vertex -14.2 29.1 1.6
      vertex -14.4347 29.1185 1.6
    endloop
  endfacet
  facet normal 0 0 1
    outer loop
      vertex -20.0729 27.2 1.6
      vertex -14.4347 29.1185 1.6
      vertex -14.6635 29.1734 1.6
    endloop
  endfacet
  facet normal 0 0 1
    outer loop
      vertex -14.2 29.1 1.6
      vertex -20.0729 27.2 1.6
      vertex -8.32708 27.2 1.6
    endloop
  endfacet
  facet normal 0 0 1
    outer loop
      vertex -15.6266 31.0635 1.6
      vertex -18.6084 31.3984 1.6
      vertex -15.6815 30.8347 1.6
    endloop
  endfacet
  facet normal 0 0 1
    outer loop
      vertex -15.6815 30.8347 1.6
      vertex -18.6084 31.3984 1.6
      vertex -15.7 30.6 1.6
    endloop
  endfacet
  facet normal 0 0 1
    outer loop
      vertex -15.7 30.6 1.6
      vertex -18.6084 31.3984 1.6
      vertex -15.6815 30.3653 1.6
    endloop
  endfacet
  facet normal 0 0 1
    outer loop
      vertex -15.6815 30.3653 1.6
      vertex -18.6084 31.3984 1.6
      vertex -15.6266 30.1365 1.6
    endloop
  endfacet
  facet normal 0 0 1
    outer loop
      vertex -19.5033 29.1563 1.6
      vertex -15.6266 30.1365 1.6
      vertex -18.6084 31.3984 1.6
    endloop
  endfacet
  facet normal 0 0 1
    outer loop
      vertex -15.6266 30.1365 1.6
      vertex -19.5033 29.1563 1.6
      vertex -15.5365 29.919 1.6
    endloop
  endfacet
  facet normal 0 0 1
    outer loop
      vertex -15.5365 29.919 1.6
      vertex -19.5033 29.1563 1.6
      vertex -15.4135 29.7183 1.6
    endloop
  endfacet
  facet normal 0 0 1
    outer loop
      vertex -15.4135 29.7183 1.6
      vertex -19.5033 29.1563 1.6
      vertex -15.2607 29.5393 1.6
    endloop
  endfacet
  facet normal 0 0 1
    outer loop
      vertex -20.0729 27.2 1.6
      vertex -15.2607 29.5393 1.6
      vertex -19.5033 29.1563 1.6
    endloop
  endfacet
  facet normal 0 0 1
    outer loop
      vertex -15.2607 29.5393 1.6
      vertex -20.0729 27.2 1.6
      vertex -15.0817 29.3865 1.6
    endloop
  endfacet
  facet normal 0 0 1
    outer loop
      vertex -15.0817 29.3865 1.6
      vertex -20.0729 27.2 1.6
      vertex -14.881 29.2635 1.6
    endloop
  endfacet
  facet normal 0 0 1
    outer loop
      vertex -14.881 29.2635 1.6
      vertex -20.0729 27.2 1.6
      vertex -14.6635 29.1734 1.6
    endloop
  endfacet
  facet normal 0 0 1
    outer loop
      vertex -8.32708 27.2 1.6
      vertex -20.0729 27.2 1.6
      vertex -3.2 25.6 1.6
    endloop
  endfacet
  facet normal 0 0 1
    outer loop
      vertex -20.0729 27.2 1.6
      vertex -25.2 25.6 1.6
      vertex -3.2 25.6 1.6
    endloop
  endfacet
  facet normal 0 0 1
    outer loop
      vertex -25.2 25.6 1.6
      vertex -26.8 27.2 1.6
      vertex -25.2 1.6 1.6
    endloop
  endfacet
  facet normal -0 0 1
    outer loop
      vertex -26.8 27.2 1.6
      vertex -25.2 25.6 1.6
      vertex -20.0729 27.2 1.6
    endloop
  endfacet
  facet normal -0 0 1
    outer loop
      vertex -3.2 1.6 1.6
      vertex -1.6 0 1.6
      vertex -3.2 25.6 1.6
    endloop
  endfacet
  facet normal 0 0 1
    outer loop
      vertex -3.2 1.6 1.6
      vertex -8.32708 0 1.6
      vertex -1.6 0 1.6
    endloop
  endfacet
  facet normal 0 0 1
    outer loop
      vertex -13.1393 -2.33934 1.6
      vertex -8.8967 -1.95635 1.6
      vertex -8.32708 0 1.6
    endloop
  endfacet
  facet normal 0 -0 1
    outer loop
      vertex -12.7734 -2.93647 1.6
      vertex -8.8967 -1.95635 1.6
      vertex -12.8635 -2.71901 1.6
    endloop
  endfacet
  facet normal -0 0 1
    outer loop
      vertex -12.7185 -3.63465 1.6
      vertex -9.79161 -4.19837 1.6
      vertex -12.7 -3.4 1.6
    endloop
  endfacet
  facet normal -0 0 1
    outer loop
      vertex -12.7734 -3.86352 1.6
      vertex -9.79161 -4.19837 1.6
      vertex -12.7185 -3.63465 1.6
    endloop
  endfacet
  facet normal 0 0 1
    outer loop
      vertex -9.79161 -4.19837 1.6
      vertex -12.7185 -3.16535 1.6
      vertex -12.7 -3.4 1.6
    endloop
  endfacet
  facet normal 0 0 1
    outer loop
      vertex -9.79161 -4.19837 1.6
      vertex -12.7734 -2.93647 1.6
      vertex -12.7185 -3.16535 1.6
    endloop
  endfacet
  facet normal 0 0 1
    outer loop
      vertex -8.8967 -1.95635 1.6
      vertex -12.7734 -2.93647 1.6
      vertex -9.79161 -4.19837 1.6
    endloop
  endfacet
  facet normal 0 0 1
    outer loop
      vertex -8.8967 -1.95635 1.6
      vertex -12.9865 -2.51832 1.6
      vertex -12.8635 -2.71901 1.6
    endloop
  endfacet
  facet normal 0 0 1
    outer loop
      vertex -8.8967 -1.95635 1.6
      vertex -13.1393 -2.33934 1.6
      vertex -12.9865 -2.51832 1.6
    endloop
  endfacet
  facet normal 0 0 1
    outer loop
      vertex -8.32708 0 1.6
      vertex -13.3183 -2.18647 1.6
      vertex -13.1393 -2.33934 1.6
    endloop
  endfacet
  facet normal 0 0 1
    outer loop
      vertex -8.32708 0 1.6
      vertex -13.519 -2.06349 1.6
      vertex -13.3183 -2.18647 1.6
    endloop
  endfacet
  facet normal 0 0 1
    outer loop
      vertex -8.32708 0 1.6
      vertex -13.7365 -1.97341 1.6
      vertex -13.519 -2.06349 1.6
    endloop
  endfacet
  facet normal 0 0 1
    outer loop
      vertex -8.32708 0 1.6
      vertex -13.9653 -1.91847 1.6
      vertex -13.7365 -1.97341 1.6
    endloop
  endfacet
  facet normal 0 0 1
    outer loop
      vertex -8.32708 0 1.6
      vertex -14.2 -1.9 1.6
      vertex -13.9653 -1.91847 1.6
    endloop
  endfacet
  facet normal -0 0 1
    outer loop
      vertex -20.0729 0 1.6
      vertex -14.2 -1.9 1.6
      vertex -8.32708 0 1.6
    endloop
  endfacet
  facet normal 0 0 1
    outer loop
      vertex -14.2 -1.9 1.6
      vertex -20.0729 0 1.6
      vertex -14.4347 -1.91847 1.6
    endloop
  endfacet
  facet normal 0 0 1
    outer loop
      vertex -20.0729 0 1.6
      vertex -8.32708 0 1.6
      vertex -3.2 1.6 1.6
    endloop
  endfacet
  facet normal 0 0 1
    outer loop
      vertex -18.6084 -4.19837 1.6
      vertex -15.7 -3.4 1.6
      vertex -15.6815 -3.16535 1.6
    endloop
  endfacet
  facet normal 0 0 1
    outer loop
      vertex -15.7 -3.4 1.6
      vertex -17.6049 -6.00214 1.6
      vertex -16.5176 -7.32324 1.6
    endloop
  endfacet
  facet normal 0 0 1
    outer loop
      vertex -18.6084 -4.19837 1.6
      vertex -15.6815 -3.16535 1.6
      vertex -15.6266 -2.93647 1.6
    endloop
  endfacet
  facet normal 0 0 1
    outer loop
      vertex -19.5033 -1.95635 1.6
      vertex -15.6266 -2.93647 1.6
      vertex -15.5365 -2.71901 1.6
    endloop
  endfacet
  facet normal 0 0 1
    outer loop
      vertex -19.5033 -1.95635 1.6
      vertex -15.5365 -2.71901 1.6
      vertex -15.4135 -2.51832 1.6
    endloop
  endfacet
  facet normal 0 0 1
    outer loop
      vertex -15.7 -3.4 1.6
      vertex -18.6084 -4.19837 1.6
      vertex -17.6049 -6.00214 1.6
    endloop
  endfacet
  facet normal 0 0 1
    outer loop
      vertex -19.5033 -1.95635 1.6
      vertex -15.4135 -2.51832 1.6
      vertex -15.2607 -2.33934 1.6
    endloop
  endfacet
  facet normal 0 0 1
    outer loop
      vertex -20.0729 0 1.6
      vertex -15.2607 -2.33934 1.6
      vertex -15.0817 -2.18647 1.6
    endloop
  endfacet
  facet normal 0 0 1
    outer loop
      vertex -20.0729 0 1.6
      vertex -15.0817 -2.18647 1.6
      vertex -14.881 -2.06349 1.6
    endloop
  endfacet
  facet normal 0 0 1
    outer loop
      vertex -15.6266 -2.93647 1.6
      vertex -19.5033 -1.95635 1.6
      vertex -18.6084 -4.19837 1.6
    endloop
  endfacet
  facet normal 0 0 1
    outer loop
      vertex -20.0729 0 1.6
      vertex -14.881 -2.06349 1.6
      vertex -14.6635 -1.97341 1.6
    endloop
  endfacet
  facet normal 0 0 1
    outer loop
      vertex -14.4347 -1.91847 1.6
      vertex -20.0729 0 1.6
      vertex -14.6635 -1.97341 1.6
    endloop
  endfacet
  facet normal 0 0 1
    outer loop
      vertex -15.2607 -2.33934 1.6
      vertex -20.0729 0 1.6
      vertex -19.5033 -1.95635 1.6
    endloop
  endfacet
  facet normal -0 0 1
    outer loop
      vertex -25.2 1.6 1.6
      vertex -20.0729 0 1.6
      vertex -3.2 1.6 1.6
    endloop
  endfacet
  facet normal 0 0 1
    outer loop
      vertex -25.2 1.6 1.6
      vertex -26.8 0 1.6
      vertex -20.0729 0 1.6
    endloop
  endfacet
  facet normal 0 0 1
    outer loop
      vertex -26.8 0 1.6
      vertex -25.2 1.6 1.6
      vertex -26.8 27.2 1.6
    endloop
  endfacet
  facet normal 0 0 1
    outer loop
      vertex -9.79161 -4.19837 1.6
      vertex -12.7734 -3.86352 1.6
      vertex -10.7951 -6.00214 1.6
    endloop
  endfacet
  facet normal -0 0 1
    outer loop
      vertex -12.8635 -4.08099 1.6
      vertex -10.7951 -6.00214 1.6
      vertex -12.7734 -3.86352 1.6
    endloop
  endfacet
  facet normal -0 0 1
    outer loop
      vertex -12.9865 -4.28168 1.6
      vertex -10.7951 -6.00214 1.6
      vertex -12.8635 -4.08099 1.6
    endloop
  endfacet
  facet normal -0 0 1
    outer loop
      vertex -13.1393 -4.46066 1.6
      vertex -10.7951 -6.00214 1.6
      vertex -12.9865 -4.28168 1.6
    endloop
  endfacet
  facet normal -0 0 1
    outer loop
      vertex -13.3183 -4.61352 1.6
      vertex -10.7951 -6.00214 1.6
      vertex -13.1393 -4.46066 1.6
    endloop
  endfacet
  facet normal 0 0 1
    outer loop
      vertex -10.7951 -6.00214 1.6
      vertex -13.3183 -4.61352 1.6
      vertex -11.8824 -7.32324 1.6
    endloop
  endfacet
  facet normal -0 0 1
    outer loop
      vertex -13.519 -4.73651 1.6
      vertex -11.8824 -7.32324 1.6
      vertex -13.3183 -4.61352 1.6
    endloop
  endfacet
  facet normal -0 0 1
    outer loop
      vertex -13.7365 -4.82658 1.6
      vertex -11.8824 -7.32324 1.6
      vertex -13.519 -4.73651 1.6
    endloop
  endfacet
  facet normal 0 0 1
    outer loop
      vertex -11.8824 -7.32324 1.6
      vertex -13.7365 -4.82658 1.6
      vertex -13.0267 -8.12914 1.6
    endloop
  endfacet
  facet normal -0 0 1
    outer loop
      vertex -13.9653 -4.88153 1.6
      vertex -13.0267 -8.12914 1.6
      vertex -13.7365 -4.82658 1.6
    endloop
  endfacet
  facet normal -0 0 1
    outer loop
      vertex -14.2 -4.9 1.6
      vertex -13.0267 -8.12914 1.6
      vertex -13.9653 -4.88153 1.6
    endloop
  endfacet
  facet normal 0 0 1
    outer loop
      vertex -14.2 -4.9 1.6
      vertex -14.2 -8.4 1.6
      vertex -13.0267 -8.12914 1.6
    endloop
  endfacet
  facet normal 0 0 1
    outer loop
      vertex -15.3733 -8.12914 1.6
      vertex -14.2 -4.9 1.6
      vertex -14.4347 -4.88153 1.6
    endloop
  endfacet
  facet normal 0 0 1
    outer loop
      vertex -15.3733 -8.12914 1.6
      vertex -14.4347 -4.88153 1.6
      vertex -14.6635 -4.82658 1.6
    endloop
  endfacet
  facet normal 0 0 1
    outer loop
      vertex -16.5176 -7.32324 1.6
      vertex -14.6635 -4.82658 1.6
      vertex -14.881 -4.73651 1.6
    endloop
  endfacet
  facet normal 0 0 1
    outer loop
      vertex -16.5176 -7.32324 1.6
      vertex -14.881 -4.73651 1.6
      vertex -15.0817 -4.61352 1.6
    endloop
  endfacet
  facet normal 0 0 1
    outer loop
      vertex -16.5176 -7.32324 1.6
      vertex -15.0817 -4.61352 1.6
      vertex -15.2607 -4.46066 1.6
    endloop
  endfacet
  facet normal 0 0 1
    outer loop
      vertex -14.2 -4.9 1.6
      vertex -15.3733 -8.12914 1.6
      vertex -14.2 -8.4 1.6
    endloop
  endfacet
  facet normal 0 0 1
    outer loop
      vertex -16.5176 -7.32324 1.6
      vertex -15.2607 -4.46066 1.6
      vertex -15.4135 -4.28168 1.6
    endloop
  endfacet
  facet normal 0 0 1
    outer loop
      vertex -16.5176 -7.32324 1.6
      vertex -15.4135 -4.28168 1.6
      vertex -15.5365 -4.08099 1.6
    endloop
  endfacet
  facet normal 0 0 1
    outer loop
      vertex -16.5176 -7.32324 1.6
      vertex -15.5365 -4.08099 1.6
      vertex -15.6266 -3.86352 1.6
    endloop
  endfacet
  facet normal 0 0 1
    outer loop
      vertex -16.5176 -7.32324 1.6
      vertex -15.6266 -3.86352 1.6
      vertex -15.6815 -3.63465 1.6
    endloop
  endfacet
  facet normal 0 0 1
    outer loop
      vertex -16.5176 -7.32324 1.6
      vertex -15.6815 -3.63465 1.6
      vertex -15.7 -3.4 1.6
    endloop
  endfacet
  facet normal 0 0 1
    outer loop
      vertex -14.6635 -4.82658 1.6
      vertex -16.5176 -7.32324 1.6
      vertex -15.3733 -8.12914 1.6
    endloop
  endfacet
  facet normal -0 0 1
    outer loop
      vertex -23.6 24 1.6
      vertex -4.8 3.2 1.6
      vertex -4.8 24 1.6
    endloop
  endfacet
  facet normal 0 0 1
    outer loop
      vertex -4.8 3.2 1.6
      vertex -23.6 24 1.6
      vertex -23.6 3.2 1.6
    endloop
  endfacet
  facet normal 0 -1 0
    outer loop
      vertex -25.2 1.6 1.6
      vertex -3.2 1.6 3.2
      vertex -25.2 1.6 3.2
    endloop
  endfacet
  facet normal 0 -1 -0
    outer loop
      vertex -3.2 1.6 3.2
      vertex -25.2 1.6 1.6
      vertex -3.2 1.6 1.6
    endloop
  endfacet
  facet normal 1 -0 0
    outer loop
      vertex -23.6 3.2 3.2
      vertex -23.6 24 1.6
      vertex -23.6 24 3.2
    endloop
  endfacet
  facet normal 1 0 0
    outer loop
      vertex -23.6 24 1.6
      vertex -23.6 3.2 3.2
      vertex -23.6 3.2 1.6
    endloop
  endfacet
  facet normal -1 0 0
    outer loop
      vertex -4.8 3.2 1.6
      vertex -4.8 24 3.2
      vertex -4.8 24 1.6
    endloop
  endfacet
  facet normal -1 -0 0
    outer loop
      vertex -4.8 24 3.2
      vertex -4.8 3.2 1.6
      vertex -4.8 3.2 3.2
    endloop
  endfacet
  facet normal 0 1 -0
    outer loop
      vertex -4.8 3.2 1.6
      vertex -23.6 3.2 3.2
      vertex -4.8 3.2 3.2
    endloop
  endfacet
  facet normal 0 1 0
    outer loop
      vertex -23.6 3.2 3.2
      vertex -4.8 3.2 1.6
      vertex -23.6 3.2 1.6
    endloop
  endfacet
  facet normal 0 -1 0
    outer loop
      vertex -23.6 24 1.6
      vertex -4.8 24 3.2
      vertex -23.6 24 3.2
    endloop
  endfacet
  facet normal 0 -1 -0
    outer loop
      vertex -4.8 24 3.2
      vertex -23.6 24 1.6
      vertex -4.8 24 1.6
    endloop
  endfacet
  facet normal 0.224969 0.974366 -0
    outer loop
      vertex -13.0267 35.3291 0
      vertex -14.2 35.6 1.6
      vertex -13.0267 35.3291 1.6
    endloop
  endfacet
  facet normal 0.224969 0.974366 0
    outer loop
      vertex -14.2 35.6 1.6
      vertex -13.0267 35.3291 0
      vertex -14.2 35.6 0
    endloop
  endfacet
  facet normal 0.960128 0.279562 0
    outer loop
      vertex -8.32708 27.2 1.6
      vertex -8.8967 29.1563 0
      vertex -8.8967 29.1563 1.6
    endloop
  endfacet
  facet normal 0.960128 0.279562 0
    outer loop
      vertex -8.8967 29.1563 0
      vertex -8.32708 27.2 1.6
      vertex -8.32708 27.2 0
    endloop
  endfacet
  facet normal -0.928754 0.370698 0
    outer loop
      vertex -19.5033 29.1563 0
      vertex -18.6084 31.3984 1.6
      vertex -18.6084 31.3984 0
    endloop
  endfacet
  facet normal -0.928754 0.370698 0
    outer loop
      vertex -18.6084 31.3984 1.6
      vertex -19.5033 29.1563 0
      vertex -19.5033 29.1563 1.6
    endloop
  endfacet
  facet normal -0.772121 0.635476 0
    outer loop
      vertex -17.6049 33.2021 0
      vertex -16.5176 34.5232 1.6
      vertex -16.5176 34.5232 0
    endloop
  endfacet
  facet normal -0.772121 0.635476 0
    outer loop
      vertex -16.5176 34.5232 1.6
      vertex -17.6049 33.2021 0
      vertex -17.6049 33.2021 1.6
    endloop
  endfacet
  facet normal 0 0 -1
    outer loop
      vertex -12.9865 -2.51832 0
      vertex -8.8967 -1.95635 0
      vertex -12.8635 -2.71901 0
    endloop
  endfacet
  facet normal 0 0 -1
    outer loop
      vertex -8.32708 27.2 0
      vertex -12.7185 30.3653 0
      vertex -12.7 30.6 0
    endloop
  endfacet
  facet normal 0 0 -1
    outer loop
      vertex -13.1393 -2.33934 0
      vertex -8.8967 -1.95635 0
      vertex -12.9865 -2.51832 0
    endloop
  endfacet
  facet normal 0 0 -1
    outer loop
      vertex -8.32708 27.2 0
      vertex -12.7734 30.1365 0
      vertex -12.7185 30.3653 0
    endloop
  endfacet
  facet normal -0 0 -1
    outer loop
      vertex -8.8967 -1.95635 0
      vertex -13.1393 -2.33934 0
      vertex -8.32708 0 0
    endloop
  endfacet
  facet normal 0 0 -1
    outer loop
      vertex -8.32708 27.2 0
      vertex -12.8635 29.919 0
      vertex -12.7734 30.1365 0
    endloop
  endfacet
  facet normal 0 0 -1
    outer loop
      vertex -13.3183 -2.18647 0
      vertex -8.32708 0 0
      vertex -13.1393 -2.33934 0
    endloop
  endfacet
  facet normal 0 0 -1
    outer loop
      vertex -8.32708 27.2 0
      vertex -12.9865 29.7183 0
      vertex -12.8635 29.919 0
    endloop
  endfacet
  facet normal 0 0 -1
    outer loop
      vertex -13.519 -2.06349 0
      vertex -8.32708 0 0
      vertex -13.3183 -2.18647 0
    endloop
  endfacet
  facet normal 0 0 -1
    outer loop
      vertex -8.32708 27.2 0
      vertex -13.1393 29.5393 0
      vertex -12.9865 29.7183 0
    endloop
  endfacet
  facet normal 0 0 -1
    outer loop
      vertex -13.7365 -1.97341 0
      vertex -8.32708 0 0
      vertex -13.519 -2.06349 0
    endloop
  endfacet
  facet normal 0 0 -1
    outer loop
      vertex -8.32708 27.2 0
      vertex -13.3183 29.3865 0
      vertex -13.1393 29.5393 0
    endloop
  endfacet
  facet normal 0 0 -1
    outer loop
      vertex -13.9653 -1.91847 0
      vertex -8.32708 0 0
      vertex -13.7365 -1.97341 0
    endloop
  endfacet
  facet normal 0 0 -1
    outer loop
      vertex -8.32708 27.2 0
      vertex -13.519 29.2635 0
      vertex -13.3183 29.3865 0
    endloop
  endfacet
  facet normal 0 0 -1
    outer loop
      vertex -14.2 -1.9 0
      vertex -8.32708 0 0
      vertex -13.9653 -1.91847 0
    endloop
  endfacet
  facet normal 0 0 -1
    outer loop
      vertex -8.32708 27.2 0
      vertex -13.7365 29.1734 0
      vertex -13.519 29.2635 0
    endloop
  endfacet
  facet normal 0 0 -1
    outer loop
      vertex -8.32708 0 0
      vertex -20.0729 0 0
      vertex -8.32708 27.2 0
    endloop
  endfacet
  facet normal 0 0 -1
    outer loop
      vertex -8.32708 27.2 0
      vertex -13.9653 29.1185 0
      vertex -13.7365 29.1734 0
    endloop
  endfacet
  facet normal -0 0 -1
    outer loop
      vertex -8.32708 0 0
      vertex -14.2 -1.9 0
      vertex -20.0729 0 0
    endloop
  endfacet
  facet normal 0 0 -1
    outer loop
      vertex -20.0729 27.2 0
      vertex -8.32708 27.2 0
      vertex -20.0729 0 0
    endloop
  endfacet
  facet normal 0 0 -1
    outer loop
      vertex -20.0729 0 0
      vertex -14.2 -1.9 0
      vertex -14.4347 -1.91847 0
    endloop
  endfacet
  facet normal 0 -0 -1
    outer loop
      vertex -14.2 29.1 0
      vertex -8.32708 27.2 0
      vertex -20.0729 27.2 0
    endloop
  endfacet
  facet normal 0 0 -1
    outer loop
      vertex -20.0729 0 0
      vertex -14.4347 -1.91847 0
      vertex -14.6635 -1.97341 0
    endloop
  endfacet
  facet normal 0 0 -1
    outer loop
      vertex -8.32708 27.2 0
      vertex -14.2 29.1 0
      vertex -13.9653 29.1185 0
    endloop
  endfacet
  facet normal 0 0 -1
    outer loop
      vertex -20.0729 0 0
      vertex -14.6635 -1.97341 0
      vertex -14.881 -2.06349 0
    endloop
  endfacet
  facet normal -0 0 -1
    outer loop
      vertex -14.2 29.1 0
      vertex -20.0729 27.2 0
      vertex -14.4347 29.1185 0
    endloop
  endfacet
  facet normal 0 0 -1
    outer loop
      vertex -20.0729 0 0
      vertex -14.881 -2.06349 0
      vertex -15.0817 -2.18647 0
    endloop
  endfacet
  facet normal -0 0 -1
    outer loop
      vertex -14.4347 29.1185 0
      vertex -20.0729 27.2 0
      vertex -14.6635 29.1734 0
    endloop
  endfacet
  facet normal 0 0 -1
    outer loop
      vertex -20.0729 0 0
      vertex -15.0817 -2.18647 0
      vertex -15.2607 -2.33934 0
    endloop
  endfacet
  facet normal -0 0 -1
    outer loop
      vertex -14.6635 29.1734 0
      vertex -20.0729 27.2 0
      vertex -14.881 29.2635 0
    endloop
  endfacet
  facet normal 0 0 -1
    outer loop
      vertex -19.5033 -1.95635 0
      vertex -15.2607 -2.33934 0
      vertex -15.4135 -2.51832 0
    endloop
  endfacet
  facet normal -0 0 -1
    outer loop
      vertex -14.881 29.2635 0
      vertex -20.0729 27.2 0
      vertex -15.0817 29.3865 0
    endloop
  endfacet
  facet normal 0 0 -1
    outer loop
      vertex -19.5033 -1.95635 0
      vertex -15.4135 -2.51832 0
      vertex -15.5365 -2.71901 0
    endloop
  endfacet
  facet normal -0 0 -1
    outer loop
      vertex -15.0817 29.3865 0
      vertex -20.0729 27.2 0
      vertex -15.2607 29.5393 0
    endloop
  endfacet
  facet normal 0 0 -1
    outer loop
      vertex -19.5033 -1.95635 0
      vertex -15.5365 -2.71901 0
      vertex -15.6266 -2.93647 0
    endloop
  endfacet
  facet normal 0 -0 -1
    outer loop
      vertex -19.5033 29.1563 0
      vertex -15.2607 29.5393 0
      vertex -20.0729 27.2 0
    endloop
  endfacet
  facet normal 0 0 -1
    outer loop
      vertex -18.6084 -4.19837 0
      vertex -15.6266 -2.93647 0
      vertex -15.6815 -3.16535 0
    endloop
  endfacet
  facet normal -0 0 -1
    outer loop
      vertex -15.2607 29.5393 0
      vertex -19.5033 29.1563 0
      vertex -15.4135 29.7183 0
    endloop
  endfacet
  facet normal 0 0 -1
    outer loop
      vertex -18.6084 -4.19837 0
      vertex -15.6815 -3.16535 0
      vertex -15.7 -3.4 0
    endloop
  endfacet
  facet normal -0 0 -1
    outer loop
      vertex -15.4135 29.7183 0
      vertex -19.5033 29.1563 0
      vertex -15.5365 29.919 0
    endloop
  endfacet
  facet normal 0 0 -1
    outer loop
      vertex -8.32708 0 0
      vertex -1.6 27.2 0
      vertex -1.6 0 0
    endloop
  endfacet
  facet normal 0 0 -1
    outer loop
      vertex -8.32708 0 0
      vertex -8.32708 27.2 0
      vertex -1.6 27.2 0
    endloop
  endfacet
  facet normal 0 0 -1
    outer loop
      vertex -12.7734 -2.93647 0
      vertex -9.79161 -4.19837 0
      vertex -12.7185 -3.16535 0
    endloop
  endfacet
  facet normal 0 0 -1
    outer loop
      vertex -9.79161 -4.19837 0
      vertex -12.7734 -2.93647 0
      vertex -8.8967 -1.95635 0
    endloop
  endfacet
  facet normal 0 0 -1
    outer loop
      vertex -12.7185 -3.16535 0
      vertex -9.79161 -4.19837 0
      vertex -12.7 -3.4 0
    endloop
  endfacet
  facet normal 0 0 -1
    outer loop
      vertex -12.8635 -2.71901 0
      vertex -8.8967 -1.95635 0
      vertex -12.7734 -2.93647 0
    endloop
  endfacet
  facet normal 0 0 -1
    outer loop
      vertex -12.7734 -3.86352 0
      vertex -9.79161 -4.19837 0
      vertex -10.7951 -6.00214 0
    endloop
  endfacet
  facet normal 0 0 -1
    outer loop
      vertex -8.32708 27.2 0
      vertex -12.7 30.6 0
      vertex -8.8967 29.1563 0
    endloop
  endfacet
  facet normal 0 0 -1
    outer loop
      vertex -13.3183 -4.61352 0
      vertex -10.7951 -6.00214 0
      vertex -11.8824 -7.32324 0
    endloop
  endfacet
  facet normal 0 0 -1
    outer loop
      vertex -8.8967 29.1563 0
      vertex -12.7 30.6 0
      vertex -9.79161 31.3984 0
    endloop
  endfacet
  facet normal 0 0 -1
    outer loop
      vertex -12.7185 30.8347 0
      vertex -9.79161 31.3984 0
      vertex -12.7 30.6 0
    endloop
  endfacet
  facet normal 0 0 -1
    outer loop
      vertex -9.79161 -4.19837 0
      vertex -12.7185 -3.63465 0
      vertex -12.7 -3.4 0
    endloop
  endfacet
  facet normal 0 0 -1
    outer loop
      vertex -9.79161 -4.19837 0
      vertex -12.7734 -3.86352 0
      vertex -12.7185 -3.63465 0
    endloop
  endfacet
  facet normal 0 0 -1
    outer loop
      vertex -10.7951 -6.00214 0
      vertex -12.8635 -4.08099 0
      vertex -12.7734 -3.86352 0
    endloop
  endfacet
  facet normal 0 0 -1
    outer loop
      vertex -10.7951 -6.00214 0
      vertex -12.9865 -4.28168 0
      vertex -12.8635 -4.08099 0
    endloop
  endfacet
  facet normal 0 0 -1
    outer loop
      vertex -13.7365 -4.82658 0
      vertex -11.8824 -7.32324 0
      vertex -13.0267 -8.12914 0
    endloop
  endfacet
  facet normal 0 0 -1
    outer loop
      vertex -10.7951 -6.00214 0
      vertex -13.1393 -4.46066 0
      vertex -12.9865 -4.28168 0
    endloop
  endfacet
  facet normal 0 0 -1
    outer loop
      vertex -10.7951 -6.00214 0
      vertex -13.3183 -4.61352 0
      vertex -13.1393 -4.46066 0
    endloop
  endfacet
  facet normal 0 0 -1
    outer loop
      vertex -11.8824 -7.32324 0
      vertex -13.519 -4.73651 0
      vertex -13.3183 -4.61352 0
    endloop
  endfacet
  facet normal 0 0 -1
    outer loop
      vertex -11.8824 -7.32324 0
      vertex -13.7365 -4.82658 0
      vertex -13.519 -4.73651 0
    endloop
  endfacet
  facet normal 0 0 -1
    outer loop
      vertex -13.0267 -8.12914 0
      vertex -13.9653 -4.88153 0
      vertex -13.7365 -4.82658 0
    endloop
  endfacet
  facet normal 0 0 -1
    outer loop
      vertex -14.2 -4.9 0
      vertex -13.0267 -8.12914 0
      vertex -14.2 -8.4 0
    endloop
  endfacet
  facet normal 0 0 -1
    outer loop
      vertex -13.0267 -8.12914 0
      vertex -14.2 -4.9 0
      vertex -13.9653 -4.88153 0
    endloop
  endfacet
  facet normal 0 0 -1
    outer loop
      vertex -15.3733 -8.12914 0
      vertex -14.2 -4.9 0
      vertex -14.2 -8.4 0
    endloop
  endfacet
  facet normal -0 0 -1
    outer loop
      vertex -14.2 -4.9 0
      vertex -15.3733 -8.12914 0
      vertex -14.4347 -4.88153 0
    endloop
  endfacet
  facet normal -0 0 -1
    outer loop
      vertex -14.4347 -4.88153 0
      vertex -15.3733 -8.12914 0
      vertex -14.6635 -4.82658 0
    endloop
  endfacet
  facet normal 0 0 -1
    outer loop
      vertex -16.5176 -7.32324 0
      vertex -14.6635 -4.82658 0
      vertex -15.3733 -8.12914 0
    endloop
  endfacet
  facet normal -0 0 -1
    outer loop
      vertex -14.6635 -4.82658 0
      vertex -16.5176 -7.32324 0
      vertex -14.881 -4.73651 0
    endloop
  endfacet
  facet normal -0 0 -1
    outer loop
      vertex -14.881 -4.73651 0
      vertex -16.5176 -7.32324 0
      vertex -15.0817 -4.61352 0
    endloop
  endfacet
  facet normal 0 0 -1
    outer loop
      vertex -17.6049 -6.00214 0
      vertex -15.0817 -4.61352 0
      vertex -16.5176 -7.32324 0
    endloop
  endfacet
  facet normal -0 0 -1
    outer loop
      vertex -15.0817 -4.61352 0
      vertex -17.6049 -6.00214 0
      vertex -15.2607 -4.46066 0
    endloop
  endfacet
  facet normal -0 0 -1
    outer loop
      vertex -15.2607 -4.46066 0
      vertex -17.6049 -6.00214 0
      vertex -15.4135 -4.28168 0
    endloop
  endfacet
  facet normal -0 0 -1
    outer loop
      vertex -15.4135 -4.28168 0
      vertex -17.6049 -6.00214 0
      vertex -15.5365 -4.08099 0
    endloop
  endfacet
  facet normal -0 0 -1
    outer loop
      vertex -15.5365 -4.08099 0
      vertex -17.6049 -6.00214 0
      vertex -15.6266 -3.86352 0
    endloop
  endfacet
  facet normal -0 0 -1
    outer loop
      vertex -15.6266 -3.86352 0
      vertex -18.6084 -4.19837 0
      vertex -15.6815 -3.63465 0
    endloop
  endfacet
  facet normal 0 0 -1
    outer loop
      vertex -18.6084 -4.19837 0
      vertex -15.6266 -3.86352 0
      vertex -17.6049 -6.00214 0
    endloop
  endfacet
  facet normal 0 0 -1
    outer loop
      vertex -12.7734 31.0635 0
      vertex -9.79161 31.3984 0
      vertex -12.7185 30.8347 0
    endloop
  endfacet
  facet normal -0 0 -1
    outer loop
      vertex -9.79161 31.3984 0
      vertex -12.7734 31.0635 0
      vertex -10.7951 33.2021 0
    endloop
  endfacet
  facet normal 0 0 -1
    outer loop
      vertex -12.8635 31.281 0
      vertex -10.7951 33.2021 0
      vertex -12.7734 31.0635 0
    endloop
  endfacet
  facet normal 0 0 -1
    outer loop
      vertex -12.9865 31.4817 0
      vertex -10.7951 33.2021 0
      vertex -12.8635 31.281 0
    endloop
  endfacet
  facet normal 0 0 -1
    outer loop
      vertex -13.1393 31.6607 0
      vertex -10.7951 33.2021 0
      vertex -12.9865 31.4817 0
    endloop
  endfacet
  facet normal 0 0 -1
    outer loop
      vertex -13.3183 31.8135 0
      vertex -10.7951 33.2021 0
      vertex -13.1393 31.6607 0
    endloop
  endfacet
  facet normal -0 0 -1
    outer loop
      vertex -10.7951 33.2021 0
      vertex -13.3183 31.8135 0
      vertex -11.8824 34.5232 0
    endloop
  endfacet
  facet normal 0 0 -1
    outer loop
      vertex -13.519 31.9365 0
      vertex -11.8824 34.5232 0
      vertex -13.3183 31.8135 0
    endloop
  endfacet
  facet normal 0 0 -1
    outer loop
      vertex -13.7365 32.0266 0
      vertex -11.8824 34.5232 0
      vertex -13.519 31.9365 0
    endloop
  endfacet
  facet normal -0 0 -1
    outer loop
      vertex -11.8824 34.5232 0
      vertex -13.7365 32.0266 0
      vertex -13.0267 35.3291 0
    endloop
  endfacet
  facet normal 0 0 -1
    outer loop
      vertex -13.9653 32.0815 0
      vertex -13.0267 35.3291 0
      vertex -13.7365 32.0266 0
    endloop
  endfacet
  facet normal 0 0 -1
    outer loop
      vertex -14.2 32.1 0
      vertex -13.0267 35.3291 0
      vertex -13.9653 32.0815 0
    endloop
  endfacet
  facet normal 0 0 -1
    outer loop
      vertex -14.2 32.1 0
      vertex -14.2 35.6 0
      vertex -13.0267 35.3291 0
    endloop
  endfacet
  facet normal 0 0 -1
    outer loop
      vertex -15.3733 35.3291 0
      vertex -14.2 32.1 0
      vertex -14.4347 32.0815 0
    endloop
  endfacet
  facet normal 0 0 -1
    outer loop
      vertex -15.3733 35.3291 0
      vertex -14.4347 32.0815 0
      vertex -14.6635 32.0266 0
    endloop
  endfacet
  facet normal 0 0 -1
    outer loop
      vertex -16.5176 34.5232 0
      vertex -14.6635 32.0266 0
      vertex -14.881 31.9365 0
    endloop
  endfacet
  facet normal 0 0 -1
    outer loop
      vertex -16.5176 34.5232 0
      vertex -14.881 31.9365 0
      vertex -15.0817 31.8135 0
    endloop
  endfacet
  facet normal 0 0 -1
    outer loop
      vertex -17.6049 33.2021 0
      vertex -15.0817 31.8135 0
      vertex -15.2607 31.6607 0
    endloop
  endfacet
  facet normal 0 0 -1
    outer loop
      vertex -14.2 32.1 0
      vertex -15.3733 35.3291 0
      vertex -14.2 35.6 0
    endloop
  endfacet
  facet normal 0 0 -1
    outer loop
      vertex -17.6049 33.2021 0
      vertex -15.2607 31.6607 0
      vertex -15.4135 31.4817 0
    endloop
  endfacet
  facet normal 0 0 -1
    outer loop
      vertex -17.6049 33.2021 0
      vertex -15.4135 31.4817 0
      vertex -15.5365 31.281 0
    endloop
  endfacet
  facet normal 0 0 -1
    outer loop
      vertex -17.6049 33.2021 0
      vertex -15.5365 31.281 0
      vertex -15.6266 31.0635 0
    endloop
  endfacet
  facet normal 0 0 -1
    outer loop
      vertex -18.6084 31.3984 0
      vertex -15.6266 31.0635 0
      vertex -15.6815 30.8347 0
    endloop
  endfacet
  facet normal 0 0 -1
    outer loop
      vertex -18.6084 31.3984 0
      vertex -15.6815 30.8347 0
      vertex -15.7 30.6 0
    endloop
  endfacet
  facet normal 0 0 -1
    outer loop
      vertex -14.6635 32.0266 0
      vertex -16.5176 34.5232 0
      vertex -15.3733 35.3291 0
    endloop
  endfacet
  facet normal -0 0 -1
    outer loop
      vertex -15.5365 29.919 0
      vertex -19.5033 29.1563 0
      vertex -15.6266 30.1365 0
    endloop
  endfacet
  facet normal -0 0 -1
    outer loop
      vertex -15.6815 -3.63465 0
      vertex -18.6084 -4.19837 0
      vertex -15.7 -3.4 0
    endloop
  endfacet
  facet normal 0 -0 -1
    outer loop
      vertex -18.6084 31.3984 0
      vertex -15.6266 30.1365 0
      vertex -19.5033 29.1563 0
    endloop
  endfacet
  facet normal -0 0 -1
    outer loop
      vertex -15.6266 -2.93647 0
      vertex -18.6084 -4.19837 0
      vertex -19.5033 -1.95635 0
    endloop
  endfacet
  facet normal 0 0 -1
    outer loop
      vertex -15.6266 30.1365 0
      vertex -18.6084 31.3984 0
      vertex -15.6815 30.3653 0
    endloop
  endfacet
  facet normal 0 0 -1
    outer loop
      vertex -15.2607 -2.33934 0
      vertex -19.5033 -1.95635 0
      vertex -20.0729 0 0
    endloop
  endfacet
  facet normal 0 0 -1
    outer loop
      vertex -15.6815 30.3653 0
      vertex -18.6084 31.3984 0
      vertex -15.7 30.6 0
    endloop
  endfacet
  facet normal 0 0 -1
    outer loop
      vertex -15.6266 31.0635 0
      vertex -18.6084 31.3984 0
      vertex -17.6049 33.2021 0
    endloop
  endfacet
  facet normal 0 0 -1
    outer loop
      vertex -15.0817 31.8135 0
      vertex -17.6049 33.2021 0
      vertex -16.5176 34.5232 0
    endloop
  endfacet
  facet normal 0 0 -1
    outer loop
      vertex -26.8 0 0
      vertex -20.0729 27.2 0
      vertex -20.0729 0 0
    endloop
  endfacet
  facet normal -0 0 -1
    outer loop
      vertex -20.0729 27.2 0
      vertex -26.8 0 0
      vertex -26.8 27.2 0
    endloop
  endfacet
  facet normal 0.873862 0.486174 0
    outer loop
      vertex -9.79161 31.3984 1.6
      vertex -10.7951 33.2021 0
      vertex -10.7951 33.2021 1.6
    endloop
  endfacet
  facet normal 0.873862 0.486174 0
    outer loop
      vertex -10.7951 33.2021 0
      vertex -9.79161 31.3984 1.6
      vertex -9.79161 31.3984 0
    endloop
  endfacet
  facet normal 0.928752 0.370701 0
    outer loop
      vertex -8.8967 29.1563 1.6
      vertex -9.79161 31.3984 0
      vertex -9.79161 31.3984 1.6
    endloop
  endfacet
  facet normal 0.928752 0.370701 0
    outer loop
      vertex -9.79161 31.3984 0
      vertex -8.8967 29.1563 1.6
      vertex -8.8967 29.1563 0
    endloop
  endfacet
  facet normal -0.96013 0.279553 0
    outer loop
      vertex -20.0729 27.2 0
      vertex -19.5033 29.1563 1.6
      vertex -19.5033 29.1563 0
    endloop
  endfacet
  facet normal -0.96013 0.279553 0
    outer loop
      vertex -19.5033 29.1563 1.6
      vertex -20.0729 27.2 0
      vertex -20.0729 27.2 1.6
    endloop
  endfacet
  facet normal -0.87386 0.486178 0
    outer loop
      vertex -18.6084 31.3984 0
      vertex -17.6049 33.2021 1.6
      vertex -17.6049 33.2021 0
    endloop
  endfacet
  facet normal -0.87386 0.486178 0
    outer loop
      vertex -17.6049 33.2021 1.6
      vertex -18.6084 31.3984 0
      vertex -18.6084 31.3984 1.6
    endloop
  endfacet
  facet normal -0.224969 0.974366 0
    outer loop
      vertex -14.2 35.6 0
      vertex -15.3733 35.3291 1.6
      vertex -14.2 35.6 1.6
    endloop
  endfacet
  facet normal -0.224969 0.974366 0
    outer loop
      vertex -15.3733 35.3291 1.6
      vertex -14.2 35.6 0
      vertex -15.3733 35.3291 0
    endloop
  endfacet
  facet normal 0.575805 -0.817587 0
    outer loop
      vertex -13.0267 -8.12914 0
      vertex -11.8824 -7.32324 1.6
      vertex -13.0267 -8.12914 1.6
    endloop
  endfacet
  facet normal 0.575805 -0.817587 0
    outer loop
      vertex -11.8824 -7.32324 1.6
      vertex -13.0267 -8.12914 0
      vertex -11.8824 -7.32324 0
    endloop
  endfacet
  facet normal 0.224937 -0.974373 0
    outer loop
      vertex -14.2 -8.4 0
      vertex -13.0267 -8.12914 1.6
      vertex -14.2 -8.4 1.6
    endloop
  endfacet
  facet normal 0.224937 -0.974373 0
    outer loop
      vertex -13.0267 -8.12914 1.6
      vertex -14.2 -8.4 0
      vertex -13.0267 -8.12914 0
    endloop
  endfacet
  facet normal 0.87387 -0.486159 0
    outer loop
      vertex -10.7951 -6.00214 1.6
      vertex -9.79161 -4.19837 0
      vertex -9.79161 -4.19837 1.6
    endloop
  endfacet
  facet normal 0.87387 -0.486159 0
    outer loop
      vertex -9.79161 -4.19837 0
      vertex -10.7951 -6.00214 1.6
      vertex -10.7951 -6.00214 0
    endloop
  endfacet
  facet normal -0.928749 -0.370709 0
    outer loop
      vertex -18.6084 -4.19837 0
      vertex -19.5033 -1.95635 1.6
      vertex -19.5033 -1.95635 0
    endloop
  endfacet
  facet normal -0.928749 -0.370709 0
    outer loop
      vertex -19.5033 -1.95635 1.6
      vertex -18.6084 -4.19837 0
      vertex -18.6084 -4.19837 1.6
    endloop
  endfacet
  facet normal -0.772121 -0.635476 0
    outer loop
      vertex -16.5176 -7.32324 0
      vertex -17.6049 -6.00214 1.6
      vertex -17.6049 -6.00214 0
    endloop
  endfacet
  facet normal -0.772121 -0.635476 0
    outer loop
      vertex -17.6049 -6.00214 1.6
      vertex -16.5176 -7.32324 0
      vertex -16.5176 -7.32324 1.6
    endloop
  endfacet
  facet normal -0.960132 -0.279547 0
    outer loop
      vertex -19.5033 -1.95635 0
      vertex -20.0729 0 1.6
      vertex -20.0729 0 0
    endloop
  endfacet
  facet normal -0.960132 -0.279547 0
    outer loop
      vertex -20.0729 0 1.6
      vertex -19.5033 -1.95635 0
      vertex -19.5033 -1.95635 1.6
    endloop
  endfacet
  facet normal 0.772121 0.635476 0
    outer loop
      vertex -10.7951 33.2021 1.6
      vertex -11.8824 34.5232 0
      vertex -11.8824 34.5232 1.6
    endloop
  endfacet
  facet normal 0.772121 0.635476 0
    outer loop
      vertex -11.8824 34.5232 0
      vertex -10.7951 33.2021 1.6
      vertex -10.7951 33.2021 0
    endloop
  endfacet
  facet normal 0.575805 0.817587 -0
    outer loop
      vertex -11.8824 34.5232 0
      vertex -13.0267 35.3291 1.6
      vertex -11.8824 34.5232 1.6
    endloop
  endfacet
  facet normal 0.575805 0.817587 0
    outer loop
      vertex -13.0267 35.3291 1.6
      vertex -11.8824 34.5232 0
      vertex -13.0267 35.3291 0
    endloop
  endfacet
  facet normal -0.575805 0.817587 0
    outer loop
      vertex -15.3733 35.3291 0
      vertex -16.5176 34.5232 1.6
      vertex -15.3733 35.3291 1.6
    endloop
  endfacet
  facet normal -0.575805 0.817587 0
    outer loop
      vertex -16.5176 34.5232 1.6
      vertex -15.3733 35.3291 0
      vertex -16.5176 34.5232 0
    endloop
  endfacet
  facet normal 0.928748 -0.370713 0
    outer loop
      vertex -9.79161 -4.19837 1.6
      vertex -8.8967 -1.95635 0
      vertex -8.8967 -1.95635 1.6
    endloop
  endfacet
  facet normal 0.928748 -0.370713 0
    outer loop
      vertex -8.8967 -1.95635 0
      vertex -9.79161 -4.19837 1.6
      vertex -9.79161 -4.19837 0
    endloop
  endfacet
  facet normal 0.960129 -0.279556 0
    outer loop
      vertex -8.8967 -1.95635 1.6
      vertex -8.32708 0 0
      vertex -8.32708 0 1.6
    endloop
  endfacet
  facet normal 0.960129 -0.279556 0
    outer loop
      vertex -8.32708 0 0
      vertex -8.8967 -1.95635 1.6
      vertex -8.8967 -1.95635 0
    endloop
  endfacet
  facet normal -0.873868 -0.486163 0
    outer loop
      vertex -17.6049 -6.00214 0
      vertex -18.6084 -4.19837 1.6
      vertex -18.6084 -4.19837 0
    endloop
  endfacet
  facet normal -0.873868 -0.486163 0
    outer loop
      vertex -18.6084 -4.19837 1.6
      vertex -17.6049 -6.00214 0
      vertex -17.6049 -6.00214 1.6
    endloop
  endfacet
  facet normal -0.224937 -0.974373 0
    outer loop
      vertex -15.3733 -8.12914 0
      vertex -14.2 -8.4 1.6
      vertex -15.3733 -8.12914 1.6
    endloop
  endfacet
  facet normal -0.224937 -0.974373 -0
    outer loop
      vertex -14.2 -8.4 1.6
      vertex -15.3733 -8.12914 0
      vertex -14.2 -8.4 0
    endloop
  endfacet
  facet normal 0.772121 -0.635476 0
    outer loop
      vertex -11.8824 -7.32324 1.6
      vertex -10.7951 -6.00214 0
      vertex -10.7951 -6.00214 1.6
    endloop
  endfacet
  facet normal 0.772121 -0.635476 0
    outer loop
      vertex -10.7951 -6.00214 0
      vertex -11.8824 -7.32324 1.6
      vertex -11.8824 -7.32324 0
    endloop
  endfacet
  facet normal -0.575805 -0.817587 0
    outer loop
      vertex -16.5176 -7.32324 0
      vertex -15.3733 -8.12914 1.6
      vertex -16.5176 -7.32324 1.6
    endloop
  endfacet
  facet normal -0.575805 -0.817587 -0
    outer loop
      vertex -15.3733 -8.12914 1.6
      vertex -16.5176 -7.32324 0
      vertex -15.3733 -8.12914 0
    endloop
  endfacet
  facet normal -0.996906 -0.0785969 0
    outer loop
      vertex -12.7 -3.4 0
      vertex -12.7185 -3.16535 1.6
      vertex -12.7185 -3.16535 0
    endloop
  endfacet
  facet normal -0.996906 -0.0785969 0
    outer loop
      vertex -12.7185 -3.16535 1.6
      vertex -12.7 -3.4 0
      vertex -12.7 -3.4 1.6
    endloop
  endfacet
  facet normal 0.996906 -0.0785969 0
    outer loop
      vertex -15.7 -3.4 1.6
      vertex -15.6815 -3.16535 0
      vertex -15.6815 -3.16535 1.6
    endloop
  endfacet
  facet normal 0.996906 -0.0785969 0
    outer loop
      vertex -15.6815 -3.16535 0
      vertex -15.7 -3.4 1.6
      vertex -15.7 -3.4 0
    endloop
  endfacet
  facet normal 0.0784536 -0.996918 0
    outer loop
      vertex -14.4347 -1.91847 0
      vertex -14.2 -1.9 1.6
      vertex -14.4347 -1.91847 1.6
    endloop
  endfacet
  facet normal 0.0784536 -0.996918 0
    outer loop
      vertex -14.2 -1.9 1.6
      vertex -14.4347 -1.91847 0
      vertex -14.2 -1.9 0
    endloop
  endfacet
  facet normal 0.0784536 0.996918 -0
    outer loop
      vertex -14.2 -4.9 0
      vertex -14.4347 -4.88153 1.6
      vertex -14.2 -4.9 1.6
    endloop
  endfacet
  facet normal 0.0784536 0.996918 0
    outer loop
      vertex -14.4347 -4.88153 1.6
      vertex -14.2 -4.9 0
      vertex -14.4347 -4.88153 0
    endloop
  endfacet
  facet normal 0.760539 0.649292 0
    outer loop
      vertex -15.2607 -4.46066 1.6
      vertex -15.4135 -4.28168 0
      vertex -15.4135 -4.28168 1.6
    endloop
  endfacet
  facet normal 0.760539 0.649292 0
    outer loop
      vertex -15.4135 -4.28168 0
      vertex -15.2607 -4.46066 1.6
      vertex -15.2607 -4.46066 0
    endloop
  endfacet
  facet normal -0.649422 -0.760428 0
    outer loop
      vertex -13.3183 -2.18647 0
      vertex -13.1393 -2.33934 1.6
      vertex -13.3183 -2.18647 1.6
    endloop
  endfacet
  facet normal -0.649422 -0.760428 -0
    outer loop
      vertex -13.1393 -2.33934 1.6
      vertex -13.3183 -2.18647 0
      vertex -13.1393 -2.33934 0
    endloop
  endfacet
  facet normal 0.760539 -0.649292 0
    outer loop
      vertex -15.4135 -2.51832 1.6
      vertex -15.2607 -2.33934 0
      vertex -15.2607 -2.33934 1.6
    endloop
  endfacet
  facet normal 0.760539 -0.649292 0
    outer loop
      vertex -15.2607 -2.33934 0
      vertex -15.4135 -2.51832 1.6
      vertex -15.4135 -2.51832 0
    endloop
  endfacet
  facet normal 0.382642 -0.923897 0
    outer loop
      vertex -14.881 -2.06349 0
      vertex -14.6635 -1.97341 1.6
      vertex -14.881 -2.06349 1.6
    endloop
  endfacet
  facet normal 0.382642 -0.923897 0
    outer loop
      vertex -14.6635 -1.97341 1.6
      vertex -14.881 -2.06349 0
      vertex -14.6635 -1.97341 0
    endloop
  endfacet
  facet normal -0.760539 0.649292 0
    outer loop
      vertex -13.1393 -4.46066 0
      vertex -12.9865 -4.28168 1.6
      vertex -12.9865 -4.28168 0
    endloop
  endfacet
  facet normal -0.760539 0.649292 0
    outer loop
      vertex -12.9865 -4.28168 1.6
      vertex -13.1393 -4.46066 0
      vertex -13.1393 -4.46066 1.6
    endloop
  endfacet
  facet normal 0.923848 0.382759 0
    outer loop
      vertex -15.5365 -4.08099 1.6
      vertex -15.6266 -3.86352 0
      vertex -15.6266 -3.86352 1.6
    endloop
  endfacet
  facet normal 0.923848 0.382759 0
    outer loop
      vertex -15.6266 -3.86352 0
      vertex -15.5365 -4.08099 1.6
      vertex -15.5365 -4.08099 0
    endloop
  endfacet
  facet normal -0.923842 -0.382775 0
    outer loop
      vertex -12.7734 -2.93647 0
      vertex -12.8635 -2.71901 1.6
      vertex -12.8635 -2.71901 0
    endloop
  endfacet
  facet normal -0.923842 -0.382775 0
    outer loop
      vertex -12.8635 -2.71901 1.6
      vertex -12.7734 -2.93647 0
      vertex -12.7734 -2.93647 1.6
    endloop
  endfacet
  facet normal -0.972417 -0.233248 0
    outer loop
      vertex -12.7185 -3.16535 0
      vertex -12.7734 -2.93647 1.6
      vertex -12.7734 -2.93647 0
    endloop
  endfacet
  facet normal -0.972417 -0.233248 0
    outer loop
      vertex -12.7734 -2.93647 1.6
      vertex -12.7185 -3.16535 0
      vertex -12.7185 -3.16535 1.6
    endloop
  endfacet
  facet normal -0.852608 -0.522551 0
    outer loop
      vertex -12.8635 -2.71901 0
      vertex -12.9865 -2.51832 1.6
      vertex -12.9865 -2.51832 0
    endloop
  endfacet
  facet normal -0.852608 -0.522551 0
    outer loop
      vertex -12.9865 -2.51832 1.6
      vertex -12.8635 -2.71901 0
      vertex -12.8635 -2.71901 1.6
    endloop
  endfacet
  facet normal -0.233485 -0.97236 0
    outer loop
      vertex -13.9653 -1.91847 0
      vertex -13.7365 -1.97341 1.6
      vertex -13.9653 -1.91847 1.6
    endloop
  endfacet
  facet normal -0.233485 -0.97236 -0
    outer loop
      vertex -13.7365 -1.97341 1.6
      vertex -13.9653 -1.91847 0
      vertex -13.7365 -1.97341 0
    endloop
  endfacet
  facet normal -0.0784536 -0.996918 0
    outer loop
      vertex -14.2 -1.9 0
      vertex -13.9653 -1.91847 1.6
      vertex -14.2 -1.9 1.6
    endloop
  endfacet
  facet normal -0.0784536 -0.996918 -0
    outer loop
      vertex -13.9653 -1.91847 1.6
      vertex -14.2 -1.9 0
      vertex -13.9653 -1.91847 0
    endloop
  endfacet
  facet normal -0.52247 -0.852657 0
    outer loop
      vertex -13.519 -2.06349 0
      vertex -13.3183 -2.18647 1.6
      vertex -13.519 -2.06349 1.6
    endloop
  endfacet
  facet normal -0.52247 -0.852657 -0
    outer loop
      vertex -13.3183 -2.18647 1.6
      vertex -13.519 -2.06349 0
      vertex -13.3183 -2.18647 0
    endloop
  endfacet
  facet normal 0.923842 -0.382775 0
    outer loop
      vertex -15.6266 -2.93647 1.6
      vertex -15.5365 -2.71901 0
      vertex -15.5365 -2.71901 1.6
    endloop
  endfacet
  facet normal 0.923842 -0.382775 0
    outer loop
      vertex -15.5365 -2.71901 0
      vertex -15.6266 -2.93647 1.6
      vertex -15.6266 -2.93647 0
    endloop
  endfacet
  facet normal 0.852608 -0.522551 0
    outer loop
      vertex -15.5365 -2.71901 1.6
      vertex -15.4135 -2.51832 0
      vertex -15.4135 -2.51832 1.6
    endloop
  endfacet
  facet normal 0.852608 -0.522551 0
    outer loop
      vertex -15.4135 -2.51832 0
      vertex -15.5365 -2.71901 1.6
      vertex -15.5365 -2.71901 0
    endloop
  endfacet
  facet normal 0.972417 -0.233248 0
    outer loop
      vertex -15.6815 -3.16535 1.6
      vertex -15.6266 -2.93647 0
      vertex -15.6266 -2.93647 1.6
    endloop
  endfacet
  facet normal 0.972417 -0.233248 0
    outer loop
      vertex -15.6266 -2.93647 0
      vertex -15.6815 -3.16535 1.6
      vertex -15.6815 -3.16535 0
    endloop
  endfacet
  facet normal 0.52247 -0.852657 0
    outer loop
      vertex -15.0817 -2.18647 0
      vertex -14.881 -2.06349 1.6
      vertex -15.0817 -2.18647 1.6
    endloop
  endfacet
  facet normal 0.52247 -0.852657 0
    outer loop
      vertex -14.881 -2.06349 1.6
      vertex -15.0817 -2.18647 0
      vertex -14.881 -2.06349 0
    endloop
  endfacet
  facet normal 0.233485 -0.97236 0
    outer loop
      vertex -14.6635 -1.97341 0
      vertex -14.4347 -1.91847 1.6
      vertex -14.6635 -1.97341 1.6
    endloop
  endfacet
  facet normal 0.233485 -0.97236 0
    outer loop
      vertex -14.4347 -1.91847 1.6
      vertex -14.6635 -1.97341 0
      vertex -14.4347 -1.91847 0
    endloop
  endfacet
  facet normal -0.996906 0.0785969 0
    outer loop
      vertex -12.7185 -3.63465 0
      vertex -12.7 -3.4 1.6
      vertex -12.7 -3.4 0
    endloop
  endfacet
  facet normal -0.996906 0.0785969 0
    outer loop
      vertex -12.7 -3.4 1.6
      vertex -12.7185 -3.63465 0
      vertex -12.7185 -3.63465 1.6
    endloop
  endfacet
  facet normal -0.0784536 0.996918 0
    outer loop
      vertex -13.9653 -4.88153 0
      vertex -14.2 -4.9 1.6
      vertex -13.9653 -4.88153 1.6
    endloop
  endfacet
  facet normal -0.0784536 0.996918 0
    outer loop
      vertex -14.2 -4.9 1.6
      vertex -13.9653 -4.88153 0
      vertex -14.2 -4.9 0
    endloop
  endfacet
  facet normal -0.522501 0.852638 0
    outer loop
      vertex -13.3183 -4.61352 0
      vertex -13.519 -4.73651 1.6
      vertex -13.3183 -4.61352 1.6
    endloop
  endfacet
  facet normal -0.522501 0.852638 0
    outer loop
      vertex -13.519 -4.73651 1.6
      vertex -13.3183 -4.61352 0
      vertex -13.519 -4.73651 0
    endloop
  endfacet
  facet normal 0.649398 0.760449 -0
    outer loop
      vertex -15.0817 -4.61352 0
      vertex -15.2607 -4.46066 1.6
      vertex -15.0817 -4.61352 1.6
    endloop
  endfacet
  facet normal 0.649398 0.760449 0
    outer loop
      vertex -15.2607 -4.46066 1.6
      vertex -15.0817 -4.61352 0
      vertex -15.2607 -4.46066 0
    endloop
  endfacet
  facet normal 0.852608 0.522551 0
    outer loop
      vertex -15.4135 -4.28168 1.6
      vertex -15.5365 -4.08099 0
      vertex -15.5365 -4.08099 1.6
    endloop
  endfacet
  facet normal 0.852608 0.522551 0
    outer loop
      vertex -15.5365 -4.08099 0
      vertex -15.4135 -4.28168 1.6
      vertex -15.4135 -4.28168 0
    endloop
  endfacet
  facet normal 0.996906 0.0785969 0
    outer loop
      vertex -15.6815 -3.63465 1.6
      vertex -15.7 -3.4 0
      vertex -15.7 -3.4 1.6
    endloop
  endfacet
  facet normal 0.996906 0.0785969 0
    outer loop
      vertex -15.7 -3.4 0
      vertex -15.6815 -3.63465 1.6
      vertex -15.6815 -3.63465 0
    endloop
  endfacet
  facet normal -0.760539 -0.649292 0
    outer loop
      vertex -12.9865 -2.51832 0
      vertex -13.1393 -2.33934 1.6
      vertex -13.1393 -2.33934 0
    endloop
  endfacet
  facet normal -0.760539 -0.649292 0
    outer loop
      vertex -13.1393 -2.33934 1.6
      vertex -12.9865 -2.51832 0
      vertex -12.9865 -2.51832 1.6
    endloop
  endfacet
  facet normal -0.382642 -0.923897 0
    outer loop
      vertex -13.7365 -1.97341 0
      vertex -13.519 -2.06349 1.6
      vertex -13.7365 -1.97341 1.6
    endloop
  endfacet
  facet normal -0.382642 -0.923897 -0
    outer loop
      vertex -13.519 -2.06349 1.6
      vertex -13.7365 -1.97341 0
      vertex -13.519 -2.06349 0
    endloop
  endfacet
  facet normal 0.649422 -0.760428 0
    outer loop
      vertex -15.2607 -2.33934 0
      vertex -15.0817 -2.18647 1.6
      vertex -15.2607 -2.33934 1.6
    endloop
  endfacet
  facet normal 0.649422 -0.760428 0
    outer loop
      vertex -15.0817 -2.18647 1.6
      vertex -15.2607 -2.33934 0
      vertex -15.0817 -2.18647 0
    endloop
  endfacet
  facet normal -0.233526 0.972351 0
    outer loop
      vertex -13.7365 -4.82658 0
      vertex -13.9653 -4.88153 1.6
      vertex -13.7365 -4.82658 1.6
    endloop
  endfacet
  facet normal -0.233526 0.972351 0
    outer loop
      vertex -13.9653 -4.88153 1.6
      vertex -13.7365 -4.82658 0
      vertex -13.9653 -4.88153 0
    endloop
  endfacet
  facet normal -0.649398 0.760449 0
    outer loop
      vertex -13.1393 -4.46066 0
      vertex -13.3183 -4.61352 1.6
      vertex -13.1393 -4.46066 1.6
    endloop
  endfacet
  facet normal -0.649398 0.760449 0
    outer loop
      vertex -13.3183 -4.61352 1.6
      vertex -13.1393 -4.46066 0
      vertex -13.3183 -4.61352 0
    endloop
  endfacet
  facet normal -0.852608 0.522551 0
    outer loop
      vertex -12.9865 -4.28168 0
      vertex -12.8635 -4.08099 1.6
      vertex -12.8635 -4.08099 0
    endloop
  endfacet
  facet normal -0.852608 0.522551 0
    outer loop
      vertex -12.8635 -4.08099 1.6
      vertex -12.9865 -4.28168 0
      vertex -12.9865 -4.28168 1.6
    endloop
  endfacet
  facet normal 0.522501 0.852638 -0
    outer loop
      vertex -14.881 -4.73651 0
      vertex -15.0817 -4.61352 1.6
      vertex -14.881 -4.73651 1.6
    endloop
  endfacet
  facet normal 0.522501 0.852638 0
    outer loop
      vertex -15.0817 -4.61352 1.6
      vertex -14.881 -4.73651 0
      vertex -15.0817 -4.61352 0
    endloop
  endfacet
  facet normal 0.382606 0.923912 -0
    outer loop
      vertex -14.6635 -4.82658 0
      vertex -14.881 -4.73651 1.6
      vertex -14.6635 -4.82658 1.6
    endloop
  endfacet
  facet normal 0.382606 0.923912 0
    outer loop
      vertex -14.881 -4.73651 1.6
      vertex -14.6635 -4.82658 0
      vertex -14.881 -4.73651 0
    endloop
  endfacet
  facet normal 0.972415 0.233257 0
    outer loop
      vertex -15.6266 -3.86352 1.6
      vertex -15.6815 -3.63465 0
      vertex -15.6815 -3.63465 1.6
    endloop
  endfacet
  facet normal 0.972415 0.233257 0
    outer loop
      vertex -15.6815 -3.63465 0
      vertex -15.6266 -3.86352 1.6
      vertex -15.6266 -3.86352 0
    endloop
  endfacet
  facet normal -0.382606 0.923912 0
    outer loop
      vertex -13.519 -4.73651 0
      vertex -13.7365 -4.82658 1.6
      vertex -13.519 -4.73651 1.6
    endloop
  endfacet
  facet normal -0.382606 0.923912 0
    outer loop
      vertex -13.7365 -4.82658 1.6
      vertex -13.519 -4.73651 0
      vertex -13.7365 -4.82658 0
    endloop
  endfacet
  facet normal -0.923848 0.382759 0
    outer loop
      vertex -12.8635 -4.08099 0
      vertex -12.7734 -3.86352 1.6
      vertex -12.7734 -3.86352 0
    endloop
  endfacet
  facet normal -0.923848 0.382759 0
    outer loop
      vertex -12.7734 -3.86352 1.6
      vertex -12.8635 -4.08099 0
      vertex -12.8635 -4.08099 1.6
    endloop
  endfacet
  facet normal 0.233526 0.972351 -0
    outer loop
      vertex -14.4347 -4.88153 0
      vertex -14.6635 -4.82658 1.6
      vertex -14.4347 -4.88153 1.6
    endloop
  endfacet
  facet normal 0.233526 0.972351 0
    outer loop
      vertex -14.6635 -4.82658 1.6
      vertex -14.4347 -4.88153 0
      vertex -14.6635 -4.82658 0
    endloop
  endfacet
  facet normal -0.972415 0.233257 0
    outer loop
      vertex -12.7734 -3.86352 0
      vertex -12.7185 -3.63465 1.6
      vertex -12.7185 -3.63465 0
    endloop
  endfacet
  facet normal -0.972415 0.233257 0
    outer loop
      vertex -12.7185 -3.63465 1.6
      vertex -12.7734 -3.86352 0
      vertex -12.7734 -3.86352 1.6
    endloop
  endfacet
  facet normal -0.996908 -0.0785803 0
    outer loop
      vertex -12.7 30.6 0
      vertex -12.7185 30.8347 1.6
      vertex -12.7185 30.8347 0
    endloop
  endfacet
  facet normal -0.996908 -0.0785803 0
    outer loop
      vertex -12.7185 30.8347 1.6
      vertex -12.7 30.6 0
      vertex -12.7 30.6 1.6
    endloop
  endfacet
  facet normal 0.0785803 -0.996908 0
    outer loop
      vertex -14.4347 32.0815 0
      vertex -14.2 32.1 1.6
      vertex -14.4347 32.0815 1.6
    endloop
  endfacet
  facet normal 0.0785803 -0.996908 0
    outer loop
      vertex -14.2 32.1 1.6
      vertex -14.4347 32.0815 0
      vertex -14.2 32.1 0
    endloop
  endfacet
  facet normal -0.0785803 0.996908 0
    outer loop
      vertex -13.9653 29.1185 0
      vertex -14.2 29.1 1.6
      vertex -13.9653 29.1185 1.6
    endloop
  endfacet
  facet normal -0.0785803 0.996908 0
    outer loop
      vertex -14.2 29.1 1.6
      vertex -13.9653 29.1185 0
      vertex -14.2 29.1 0
    endloop
  endfacet
  facet normal -0.64925 -0.760575 0
    outer loop
      vertex -13.3183 31.8135 0
      vertex -13.1393 31.6607 1.6
      vertex -13.3183 31.8135 1.6
    endloop
  endfacet
  facet normal -0.64925 -0.760575 -0
    outer loop
      vertex -13.1393 31.6607 1.6
      vertex -13.3183 31.8135 0
      vertex -13.1393 31.6607 0
    endloop
  endfacet
  facet normal 0.760575 -0.64925 0
    outer loop
      vertex -15.4135 31.4817 1.6
      vertex -15.2607 31.6607 0
      vertex -15.2607 31.6607 1.6
    endloop
  endfacet
  facet normal 0.760575 -0.64925 0
    outer loop
      vertex -15.2607 31.6607 0
      vertex -15.4135 31.4817 1.6
      vertex -15.4135 31.4817 0
    endloop
  endfacet
  facet normal 0.382714 -0.923867 0
    outer loop
      vertex -14.881 31.9365 0
      vertex -14.6635 32.0266 1.6
      vertex -14.881 31.9365 1.6
    endloop
  endfacet
  facet normal 0.382714 -0.923867 0
    outer loop
      vertex -14.6635 32.0266 1.6
      vertex -14.881 31.9365 0
      vertex -14.6635 32.0266 0
    endloop
  endfacet
  facet normal -0.85262 0.522532 0
    outer loop
      vertex -12.9865 29.7183 0
      vertex -12.8635 29.919 1.6
      vertex -12.8635 29.919 0
    endloop
  endfacet
  facet normal -0.85262 0.522532 0
    outer loop
      vertex -12.8635 29.919 1.6
      vertex -12.9865 29.7183 0
      vertex -12.9865 29.7183 1.6
    endloop
  endfacet
  facet normal -0.923867 -0.382714 0
    outer loop
      vertex -12.7734 31.0635 0
      vertex -12.8635 31.281 1.6
      vertex -12.8635 31.281 0
    endloop
  endfacet
  facet normal -0.923867 -0.382714 0
    outer loop
      vertex -12.8635 31.281 1.6
      vertex -12.7734 31.0635 0
      vertex -12.7734 31.0635 1.6
    endloop
  endfacet
  facet normal -0.972399 -0.233325 0
    outer loop
      vertex -12.7185 30.8347 0
      vertex -12.7734 31.0635 1.6
      vertex -12.7734 31.0635 0
    endloop
  endfacet
  facet normal -0.972399 -0.233325 0
    outer loop
      vertex -12.7734 31.0635 1.6
      vertex -12.7185 30.8347 0
      vertex -12.7185 30.8347 1.6
    endloop
  endfacet
  facet normal -0.85262 -0.522532 0
    outer loop
      vertex -12.8635 31.281 0
      vertex -12.9865 31.4817 1.6
      vertex -12.9865 31.4817 0
    endloop
  endfacet
  facet normal -0.85262 -0.522532 0
    outer loop
      vertex -12.9865 31.4817 1.6
      vertex -12.8635 31.281 0
      vertex -12.8635 31.281 1.6
    endloop
  endfacet
  facet normal -0.233325 -0.972399 0
    outer loop
      vertex -13.9653 32.0815 0
      vertex -13.7365 32.0266 1.6
      vertex -13.9653 32.0815 1.6
    endloop
  endfacet
  facet normal -0.233325 -0.972399 -0
    outer loop
      vertex -13.7365 32.0266 1.6
      vertex -13.9653 32.0815 0
      vertex -13.7365 32.0266 0
    endloop
  endfacet
  facet normal -0.0785803 -0.996908 0
    outer loop
      vertex -14.2 32.1 0
      vertex -13.9653 32.0815 1.6
      vertex -14.2 32.1 1.6
    endloop
  endfacet
  facet normal -0.0785803 -0.996908 -0
    outer loop
      vertex -13.9653 32.0815 1.6
      vertex -14.2 32.1 0
      vertex -13.9653 32.0815 0
    endloop
  endfacet
  facet normal -0.522532 -0.85262 0
    outer loop
      vertex -13.519 31.9365 0
      vertex -13.3183 31.8135 1.6
      vertex -13.519 31.9365 1.6
    endloop
  endfacet
  facet normal -0.522532 -0.85262 -0
    outer loop
      vertex -13.3183 31.8135 1.6
      vertex -13.519 31.9365 0
      vertex -13.3183 31.8135 0
    endloop
  endfacet
  facet normal 0.923867 -0.382714 0
    outer loop
      vertex -15.6266 31.0635 1.6
      vertex -15.5365 31.281 0
      vertex -15.5365 31.281 1.6
    endloop
  endfacet
  facet normal 0.923867 -0.382714 0
    outer loop
      vertex -15.5365 31.281 0
      vertex -15.6266 31.0635 1.6
      vertex -15.6266 31.0635 0
    endloop
  endfacet
  facet normal 0.85262 -0.522532 0
    outer loop
      vertex -15.5365 31.281 1.6
      vertex -15.4135 31.4817 0
      vertex -15.4135 31.4817 1.6
    endloop
  endfacet
  facet normal 0.85262 -0.522532 0
    outer loop
      vertex -15.4135 31.4817 0
      vertex -15.5365 31.281 1.6
      vertex -15.5365 31.281 0
    endloop
  endfacet
  facet normal 0.996908 -0.0785803 0
    outer loop
      vertex -15.7 30.6 1.6
      vertex -15.6815 30.8347 0
      vertex -15.6815 30.8347 1.6
    endloop
  endfacet
  facet normal 0.996908 -0.0785803 0
    outer loop
      vertex -15.6815 30.8347 0
      vertex -15.7 30.6 1.6
      vertex -15.7 30.6 0
    endloop
  endfacet
  facet normal 0.522532 -0.85262 0
    outer loop
      vertex -15.0817 31.8135 0
      vertex -14.881 31.9365 1.6
      vertex -15.0817 31.8135 1.6
    endloop
  endfacet
  facet normal 0.522532 -0.85262 0
    outer loop
      vertex -14.881 31.9365 1.6
      vertex -15.0817 31.8135 0
      vertex -14.881 31.9365 0
    endloop
  endfacet
  facet normal 0.233325 -0.972399 0
    outer loop
      vertex -14.6635 32.0266 0
      vertex -14.4347 32.0815 1.6
      vertex -14.6635 32.0266 1.6
    endloop
  endfacet
  facet normal 0.233325 -0.972399 0
    outer loop
      vertex -14.4347 32.0815 1.6
      vertex -14.6635 32.0266 0
      vertex -14.4347 32.0815 0
    endloop
  endfacet
  facet normal -0.233325 0.972399 0
    outer loop
      vertex -13.7365 29.1734 0
      vertex -13.9653 29.1185 1.6
      vertex -13.7365 29.1734 1.6
    endloop
  endfacet
  facet normal -0.233325 0.972399 0
    outer loop
      vertex -13.9653 29.1185 1.6
      vertex -13.7365 29.1734 0
      vertex -13.9653 29.1185 0
    endloop
  endfacet
  facet normal -0.760575 0.64925 0
    outer loop
      vertex -13.1393 29.5393 0
      vertex -12.9865 29.7183 1.6
      vertex -12.9865 29.7183 0
    endloop
  endfacet
  facet normal -0.760575 0.64925 0
    outer loop
      vertex -12.9865 29.7183 1.6
      vertex -13.1393 29.5393 0
      vertex -13.1393 29.5393 1.6
    endloop
  endfacet
  facet normal -0.522532 0.85262 0
    outer loop
      vertex -13.3183 29.3865 0
      vertex -13.519 29.2635 1.6
      vertex -13.3183 29.3865 1.6
    endloop
  endfacet
  facet normal -0.522532 0.85262 0
    outer loop
      vertex -13.519 29.2635 1.6
      vertex -13.3183 29.3865 0
      vertex -13.519 29.2635 0
    endloop
  endfacet
  facet normal 0.522532 0.85262 -0
    outer loop
      vertex -14.881 29.2635 0
      vertex -15.0817 29.3865 1.6
      vertex -14.881 29.2635 1.6
    endloop
  endfacet
  facet normal 0.522532 0.85262 0
    outer loop
      vertex -15.0817 29.3865 1.6
      vertex -14.881 29.2635 0
      vertex -15.0817 29.3865 0
    endloop
  endfacet
  facet normal 0.0785803 0.996908 -0
    outer loop
      vertex -14.2 29.1 0
      vertex -14.4347 29.1185 1.6
      vertex -14.2 29.1 1.6
    endloop
  endfacet
  facet normal 0.0785803 0.996908 0
    outer loop
      vertex -14.4347 29.1185 1.6
      vertex -14.2 29.1 0
      vertex -14.4347 29.1185 0
    endloop
  endfacet
  facet normal 0.85262 0.522532 0
    outer loop
      vertex -15.4135 29.7183 1.6
      vertex -15.5365 29.919 0
      vertex -15.5365 29.919 1.6
    endloop
  endfacet
  facet normal 0.85262 0.522532 0
    outer loop
      vertex -15.5365 29.919 0
      vertex -15.4135 29.7183 1.6
      vertex -15.4135 29.7183 0
    endloop
  endfacet
  facet normal 0.760575 0.64925 0
    outer loop
      vertex -15.2607 29.5393 1.6
      vertex -15.4135 29.7183 0
      vertex -15.4135 29.7183 1.6
    endloop
  endfacet
  facet normal 0.760575 0.64925 0
    outer loop
      vertex -15.4135 29.7183 0
      vertex -15.2607 29.5393 1.6
      vertex -15.2607 29.5393 0
    endloop
  endfacet
  facet normal 0.972399 0.233325 0
    outer loop
      vertex -15.6266 30.1365 1.6
      vertex -15.6815 30.3653 0
      vertex -15.6815 30.3653 1.6
    endloop
  endfacet
  facet normal 0.972399 0.233325 0
    outer loop
      vertex -15.6815 30.3653 0
      vertex -15.6266 30.1365 1.6
      vertex -15.6266 30.1365 0
    endloop
  endfacet
  facet normal 0.972399 -0.233325 0
    outer loop
      vertex -15.6815 30.8347 1.6
      vertex -15.6266 31.0635 0
      vertex -15.6266 31.0635 1.6
    endloop
  endfacet
  facet normal 0.972399 -0.233325 0
    outer loop
      vertex -15.6266 31.0635 0
      vertex -15.6815 30.8347 1.6
      vertex -15.6815 30.8347 0
    endloop
  endfacet
  facet normal 0.996908 0.0785803 0
    outer loop
      vertex -15.6815 30.3653 1.6
      vertex -15.7 30.6 0
      vertex -15.7 30.6 1.6
    endloop
  endfacet
  facet normal 0.996908 0.0785803 0
    outer loop
      vertex -15.7 30.6 0
      vertex -15.6815 30.3653 1.6
      vertex -15.6815 30.3653 0
    endloop
  endfacet
  facet normal -0.382714 0.923867 0
    outer loop
      vertex -13.519 29.2635 0
      vertex -13.7365 29.1734 1.6
      vertex -13.519 29.2635 1.6
    endloop
  endfacet
  facet normal -0.382714 0.923867 0
    outer loop
      vertex -13.7365 29.1734 1.6
      vertex -13.519 29.2635 0
      vertex -13.7365 29.1734 0
    endloop
  endfacet
  facet normal -0.64925 0.760575 0
    outer loop
      vertex -13.1393 29.5393 0
      vertex -13.3183 29.3865 1.6
      vertex -13.1393 29.5393 1.6
    endloop
  endfacet
  facet normal -0.64925 0.760575 0
    outer loop
      vertex -13.3183 29.3865 1.6
      vertex -13.1393 29.5393 0
      vertex -13.3183 29.3865 0
    endloop
  endfacet
  facet normal 0.382714 0.923867 -0
    outer loop
      vertex -14.6635 29.1734 0
      vertex -14.881 29.2635 1.6
      vertex -14.6635 29.1734 1.6
    endloop
  endfacet
  facet normal 0.382714 0.923867 0
    outer loop
      vertex -14.881 29.2635 1.6
      vertex -14.6635 29.1734 0
      vertex -14.881 29.2635 0
    endloop
  endfacet
  facet normal 0.233325 0.972399 -0
    outer loop
      vertex -14.4347 29.1185 0
      vertex -14.6635 29.1734 1.6
      vertex -14.4347 29.1185 1.6
    endloop
  endfacet
  facet normal 0.233325 0.972399 0
    outer loop
      vertex -14.6635 29.1734 1.6
      vertex -14.4347 29.1185 0
      vertex -14.6635 29.1734 0
    endloop
  endfacet
  facet normal 0.64925 0.760575 -0
    outer loop
      vertex -15.0817 29.3865 0
      vertex -15.2607 29.5393 1.6
      vertex -15.0817 29.3865 1.6
    endloop
  endfacet
  facet normal 0.64925 0.760575 0
    outer loop
      vertex -15.2607 29.5393 1.6
      vertex -15.0817 29.3865 0
      vertex -15.2607 29.5393 0
    endloop
  endfacet
  facet normal 0.923867 0.382714 0
    outer loop
      vertex -15.5365 29.919 1.6
      vertex -15.6266 30.1365 0
      vertex -15.6266 30.1365 1.6
    endloop
  endfacet
  facet normal 0.923867 0.382714 0
    outer loop
      vertex -15.6266 30.1365 0
      vertex -15.5365 29.919 1.6
      vertex -15.5365 29.919 0
    endloop
  endfacet
  facet normal -0.760575 -0.64925 0
    outer loop
      vertex -12.9865 31.4817 0
      vertex -13.1393 31.6607 1.6
      vertex -13.1393 31.6607 0
    endloop
  endfacet
  facet normal -0.760575 -0.64925 0
    outer loop
      vertex -13.1393 31.6607 1.6
      vertex -12.9865 31.4817 0
      vertex -12.9865 31.4817 1.6
    endloop
  endfacet
  facet normal -0.382714 -0.923867 0
    outer loop
      vertex -13.7365 32.0266 0
      vertex -13.519 31.9365 1.6
      vertex -13.7365 32.0266 1.6
    endloop
  endfacet
  facet normal -0.382714 -0.923867 -0
    outer loop
      vertex -13.519 31.9365 1.6
      vertex -13.7365 32.0266 0
      vertex -13.519 31.9365 0
    endloop
  endfacet
  facet normal 0.64925 -0.760575 0
    outer loop
      vertex -15.2607 31.6607 0
      vertex -15.0817 31.8135 1.6
      vertex -15.2607 31.6607 1.6
    endloop
  endfacet
  facet normal 0.64925 -0.760575 0
    outer loop
      vertex -15.0817 31.8135 1.6
      vertex -15.2607 31.6607 0
      vertex -15.0817 31.8135 0
    endloop
  endfacet
  facet normal -0.923867 0.382714 0
    outer loop
      vertex -12.8635 29.919 0
      vertex -12.7734 30.1365 1.6
      vertex -12.7734 30.1365 0
    endloop
  endfacet
  facet normal -0.923867 0.382714 0
    outer loop
      vertex -12.7734 30.1365 1.6
      vertex -12.8635 29.919 0
      vertex -12.8635 29.919 1.6
    endloop
  endfacet
  facet normal -0.972399 0.233325 0
    outer loop
      vertex -12.7734 30.1365 0
      vertex -12.7185 30.3653 1.6
      vertex -12.7185 30.3653 0
    endloop
  endfacet
  facet normal -0.972399 0.233325 0
    outer loop
      vertex -12.7185 30.3653 1.6
      vertex -12.7734 30.1365 0
      vertex -12.7734 30.1365 1.6
    endloop
  endfacet
  facet normal -0.996908 0.0785803 0
    outer loop
      vertex -12.7185 30.3653 0
      vertex -12.7 30.6 1.6
      vertex -12.7 30.6 0
    endloop
  endfacet
  facet normal -0.996908 0.0785803 0
    outer loop
      vertex -12.7 30.6 1.6
      vertex -12.7185 30.3653 0
      vertex -12.7185 30.3653 1.6
    endloop
  endfacet
  facet normal -1 0 0
    outer loop
      vertex -26.8 0 0
      vertex -26.8 27.2 1.6
      vertex -26.8 27.2 0
    endloop
  endfacet
  facet normal -1 -0 0
    outer loop
      vertex -26.8 27.2 1.6
      vertex -26.8 0 0
      vertex -26.8 0 1.6
    endloop
  endfacet
  facet normal 1 -0 0
    outer loop
      vertex -1.6 0 1.6
      vertex -1.6 27.2 0
      vertex -1.6 27.2 1.6
    endloop
  endfacet
  facet normal 1 0 0
    outer loop
      vertex -1.6 27.2 0
      vertex -1.6 0 1.6
      vertex -1.6 0 0
    endloop
  endfacet
  facet normal 0 1 -0
    outer loop
      vertex -1.6 27.2 0
      vertex -8.32708 27.2 1.6
      vertex -1.6 27.2 1.6
    endloop
  endfacet
  facet normal 0 1 0
    outer loop
      vertex -8.32708 27.2 1.6
      vertex -1.6 27.2 0
      vertex -8.32708 27.2 0
    endloop
  endfacet
  facet normal 0 1 -0
    outer loop
      vertex -20.0729 27.2 0
      vertex -26.8 27.2 1.6
      vertex -20.0729 27.2 1.6
    endloop
  endfacet
  facet normal 0 1 0
    outer loop
      vertex -26.8 27.2 1.6
      vertex -20.0729 27.2 0
      vertex -26.8 27.2 0
    endloop
  endfacet
  facet normal 0 -1 0
    outer loop
      vertex -8.32708 0 0
      vertex -1.6 0 1.6
      vertex -8.32708 0 1.6
    endloop
  endfacet
  facet normal 0 -1 -0
    outer loop
      vertex -1.6 0 1.6
      vertex -8.32708 0 0
      vertex -1.6 0 0
    endloop
  endfacet
  facet normal 0 -1 0
    outer loop
      vertex -26.8 0 0
      vertex -20.0729 0 1.6
      vertex -26.8 0 1.6
    endloop
  endfacet
  facet normal 0 -1 -0
    outer loop
      vertex -20.0729 0 1.6
      vertex -26.8 0 0
      vertex -20.0729 0 0
    endloop
  endfacet
endsolid OpenSCAD_Model
